<svg width="25" height="25" viewBox="0 0 25 25" fill="none" xmlns="http://www.w3.org/2000/svg">
<g id="home-smile-svgrepo-com 1">
<path id="Vector" fill-rule="evenodd" clip-rule="evenodd" d="M2.62286 8.14867C2.08203 9.13673 2.08203 10.3286 2.08203 12.7124V14.2969C2.08203 18.3602 2.08203 20.392 3.30242 21.6542C4.52281 22.9166 6.48699 22.9166 10.4154 22.9166H14.582C18.5104 22.9166 20.4746 22.9166 21.6949 21.6542C22.9154 20.392 22.9154 18.3602 22.9154 14.2969V12.7124C22.9154 10.3286 22.9154 9.13673 22.3745 8.14867C21.8337 7.16061 20.8457 6.54739 18.8695 5.32094L16.7862 4.02797C14.6972 2.73153 13.6528 2.08331 12.4987 2.08331C11.3446 2.08331 10.3001 2.73153 8.21123 4.02797L6.1279 5.32095C4.15177 6.54739 3.1637 7.16061 2.62286 8.14867ZM9.83892 16.039C9.49229 15.7821 9.003 15.8548 8.74606 16.2014C8.48914 16.5481 8.56184 17.0374 8.90848 17.2943C9.92141 18.0451 11.1602 18.4896 12.4987 18.4896C13.8372 18.4896 15.076 18.0451 16.0889 17.2943C16.4356 17.0374 16.5083 16.5481 16.2513 16.2014C15.9944 15.8548 15.5052 15.7821 15.1585 16.039C14.3997 16.6013 13.484 16.9271 12.4987 16.9271C11.5134 16.9271 10.5977 16.6013 9.83892 16.039Z" fill="#898989"/>
</g>
</svg>
