<svg width="25" height="25" viewBox="0 0 25 25" fill="none" xmlns="http://www.w3.org/2000/svg">
<g id="delivery-svgrepo-com 1">
<g id="Vector">
<path d="M10.6981 8.18575L11.3098 10.3583C11.8866 12.4064 12.175 13.4305 13.0228 13.8964C13.8706 14.3621 14.9469 14.0877 17.0993 13.5389L19.3824 12.9568C21.5349 12.408 22.6111 12.1336 23.1006 11.3267C23.5901 10.52 23.3017 9.49589 22.725 7.44768L22.1133 5.2752C21.5365 3.22698 21.2482 2.20287 20.4003 1.73706C19.5524 1.27126 18.4761 1.54568 16.3237 2.09449L14.0406 2.6766C11.8881 3.22542 10.812 3.49983 10.3224 4.30663C9.83293 5.11343 10.1213 6.13754 10.6981 8.18575Z" fill="#898989"/>
<path d="M2.03269 4.1215C2.16438 3.65584 2.65591 3.38307 3.13054 3.51227L5.15652 4.06375C6.24685 4.36054 7.10972 5.1852 7.41073 6.25416L9.96866 15.3381L10.1569 15.9758C10.9098 16.2515 11.5565 16.7681 11.9669 17.4542L12.3355 17.3426L22.8835 14.6532C23.3602 14.5317 23.8472 14.8122 23.9711 15.28C24.095 15.7477 23.8089 16.2253 23.3322 16.3469L12.8232 19.0265L12.4323 19.1449C12.4243 20.6276 11.3815 21.9819 9.80372 22.3842C7.91239 22.8664 5.96835 21.7984 5.46156 19.9987C4.95479 18.1989 6.07718 16.349 7.96851 15.8668C8.06224 15.8429 8.15609 15.8228 8.24989 15.8064L5.69139 6.72019C5.56264 6.26295 5.18573 5.88786 4.67964 5.75009L2.65366 5.19862C2.17902 5.06942 1.901 4.58718 2.03269 4.1215Z" fill="#898989"/>
</g>
</g>
</svg>
