<svg width="40" height="40" viewBox="0 0 40 40" fill="none" xmlns="http://www.w3.org/2000/svg">
<rect width="40" height="40" rx="10" transform="matrix(-1 0 0 1 40 0)" fill="white"/>
<path d="M15.2929 20.7071C14.9024 20.3166 14.9024 19.6834 15.2929 19.2929L21.6569 12.9289C22.0474 12.5384 22.6805 12.5384 23.0711 12.9289C23.4616 13.3195 23.4616 13.9526 23.0711 14.3431L17.4142 20L23.0711 25.6569C23.4616 26.0474 23.4616 26.6805 23.0711 27.0711C22.6805 27.4616 22.0474 27.4616 21.6569 27.0711L15.2929 20.7071ZM17 21L16 21L16 19L17 19L17 21Z" fill="#636363"/>
</svg>
