<svg width="12" height="14" viewBox="0 0 12 14" fill="none" xmlns="http://www.w3.org/2000/svg">
<g id="Frame 76">
<path id="Arrow 3" d="M5.64645 13.3536C5.84171 13.5488 6.15829 13.5488 6.35355 13.3536L9.53553 10.1716C9.7308 9.97631 9.7308 9.65973 9.53553 9.46447C9.34027 9.2692 9.02369 9.2692 8.82843 9.46447L6 12.2929L3.17157 9.46447C2.97631 9.2692 2.65973 9.2692 2.46447 9.46447C2.2692 9.65973 2.2692 9.97631 2.46447 10.1716L5.64645 13.3536ZM6.35355 0.646446C6.15829 0.451184 5.84171 0.451184 5.64645 0.646446L2.46447 3.82843C2.2692 4.02369 2.2692 4.34027 2.46447 4.53553C2.65973 4.7308 2.97631 4.7308 3.17157 4.53553L6 1.70711L8.82843 4.53553C9.02369 4.7308 9.34027 4.7308 9.53553 4.53553C9.7308 4.34027 9.7308 4.02369 9.53553 3.82843L6.35355 0.646446ZM6.5 13L6.5 1L5.5 1L5.5 13L6.5 13Z" fill="white"/>
</g>
</svg>
