<svg width="24" height="24" viewBox="0 0 24 24" fill="none" xmlns="http://www.w3.org/2000/svg">
<g id="Frame 73">
<path id="Star 10" d="M7.32759 10.0318C7.3277 10.0319 7.32781 10.032 7.32793 10.0321L7.32759 10.0318L7.24472 10.1459L7.32759 10.0318ZM16.6724 10.0318L16.6719 10.0322L16.6724 10.0318ZM12.9035 6.51545C12.6191 5.6402 11.3809 5.64021 11.0965 6.51545L10.1443 9.4459H7.06308C6.14279 9.4459 5.76016 10.6235 6.50469 11.1645L8.99747 12.9756L8.04531 15.906C7.76093 16.7813 8.76269 17.5091 9.50721 16.9682L12 15.157L14.4928 16.9682C15.2373 17.5091 16.2391 16.7813 15.9547 15.906L15.0025 12.9756L17.4953 11.1645C18.2398 10.6235 17.8572 9.4459 16.9369 9.4459H13.8557L12.9035 6.51545Z" stroke="#383838" stroke-width="1.4"/>
<circle id="Ellipse 7" cx="12" cy="12" r="11.3" stroke="#383838" stroke-width="1.4"/>
</g>
</svg>
