<svg width="24" height="24" viewBox="0 0 24 24" fill="none" xmlns="http://www.w3.org/2000/svg">
<g id="close-ellipse-svgrepo-com (1) 1">
<path id="Vector" d="M8.00383 9.41805C7.6133 9.02752 7.61331 8.39435 8.00383 8.00383C8.39435 7.61331 9.02752 7.61331 9.41804 8.00383L12.0057 10.5915L14.5907 8.00645C14.9813 7.61593 15.6144 7.61593 16.0049 8.00645C16.3955 8.39698 16.3955 9.03014 16.0049 9.42067L13.4199 12.0057L16.0039 14.5896C16.3944 14.9802 16.3944 15.6133 16.0039 16.0038C15.6133 16.3944 14.9802 16.3944 14.5896 16.0038L12.0057 13.4199L9.42094 16.0047C9.03042 16.3952 8.39725 16.3952 8.00673 16.0047C7.61621 15.6141 7.61621 14.981 8.00673 14.5904L10.5915 12.0057L8.00383 9.41805Z" fill="#0F0F0F"/>
<path id="Vector_2" fill-rule="evenodd" clip-rule="evenodd" d="M23 12C23 18.0751 18.0751 23 12 23C5.92487 23 1 18.0751 1 12C1 5.92487 5.92487 1 12 1C18.0751 1 23 5.92487 23 12ZM3.00683 12C3.00683 16.9668 7.03321 20.9932 12 20.9932C16.9668 20.9932 20.9932 16.9668 20.9932 12C20.9932 7.03321 16.9668 3.00683 12 3.00683C7.03321 3.00683 3.00683 7.03321 3.00683 12Z" fill="#383838"/>
</g>
</svg>
