<svg width="20" height="20" viewBox="0 0 20 20" fill="none" xmlns="http://www.w3.org/2000/svg">
<g id="flag-svgrepo-com 1">
<path id="Vector" d="M4.78906 0.832031C5.13424 0.832031 5.41406 1.11186 5.41406 1.45703V2.9987L6.84795 2.71192C8.2234 2.43683 9.64915 2.56773 10.9515 3.08867L11.1212 3.15656C12.4221 3.67694 13.8541 3.77412 15.2134 3.43428C15.8445 3.27652 16.4557 3.75381 16.4557 4.40427V10.5434C16.4557 11.0804 16.0903 11.5484 15.5694 11.6786L15.3907 11.7233C13.9161 12.0919 12.3628 11.9865 10.9515 11.422C9.64915 10.901 8.2234 10.7702 6.84795 11.0453L5.41406 11.332V18.1237C5.41406 18.4689 5.13424 18.7487 4.78906 18.7487C4.44389 18.7487 4.16406 18.4689 4.16406 18.1237V1.45703C4.16406 1.11186 4.44389 0.832031 4.78906 0.832031Z" fill="#454545"/>
</g>
</svg>
