<svg width="24" height="24" viewBox="0 0 24 24" fill="none" xmlns="http://www.w3.org/2000/svg">
<g id="fraudprotectmajor-svgrepo-com 1" clip-path="url(#clip0_446_57157)">
<path id="Vector" fill-rule="evenodd" clip-rule="evenodd" d="M10.9536 0.279636C8.1096 1.93924 4.5096 3.07564 1.7928 3.45484C0.806401 3.59284 -0.00119866 4.40284 1.33557e-06 5.39884L0.00240134 5.99524C-0.0335987 13.2468 0.574801 19.5936 11.3568 23.8788C11.7663 24.04 12.2217 24.04 12.6312 23.8788C23.4204 19.5936 24.0348 13.248 23.9964 5.99524V5.39404C23.9964 4.40044 23.1888 3.58204 22.2072 3.42844C19.6284 3.02404 15.8688 1.89964 13.0272 0.274836C12.7112 0.0939329 12.3533 -0.000836786 11.9892 5.56672e-06C11.6251 0.000847919 11.2687 0.0972727 10.9536 0.279636ZM16.446 10.4532C16.6712 10.2282 16.7977 9.92299 16.7978 9.60466C16.798 9.28634 16.6716 8.981 16.4466 8.75584C16.2216 8.53067 15.9163 8.40411 15.598 8.40399C15.2797 8.40388 14.9744 8.53023 14.7492 8.75524L10.7976 12.708L9.246 11.1564C9.13531 11.0418 9.00289 10.9504 8.85649 10.8875C8.71008 10.8246 8.55262 10.7915 8.39328 10.7901C8.23395 10.7888 8.07593 10.8191 7.92846 10.8794C7.78098 10.9398 7.647 11.0289 7.53433 11.1416C7.42166 11.2542 7.33255 11.3882 7.27222 11.5357C7.21188 11.6832 7.18152 11.8412 7.1829 12.0005C7.18429 12.1599 7.21739 12.3173 7.28028 12.4637C7.34317 12.6101 7.43459 12.7425 7.5492 12.8532L9.9492 15.2544C10.1742 15.4794 10.4794 15.6058 10.7976 15.6058C11.1158 15.6058 11.421 15.4794 11.646 15.2544L16.446 10.4532Z" fill="#383838"/>
</g>
<defs>
<clipPath id="clip0_446_57157">
<rect width="24" height="24" fill="white"/>
</clipPath>
</defs>
</svg>
