<svg width="24" height="24" viewBox="0 0 24 24" fill="none" xmlns="http://www.w3.org/2000/svg">
<g id="Frame 68">
<path id="Vector" d="M11.2581 4.50209L12 5.32297L12.7419 4.50209C15.1934 1.78963 17.7258 1.57723 19.5872 2.48336C21.5315 3.42981 23 5.71142 23 8.4788C23 13.6092 19.432 16.549 16.0247 19.3563C15.6812 19.6393 15.3394 19.9209 15.003 20.2033C14.3705 20.7343 13.8127 21.1947 13.2774 21.5278C12.7401 21.8622 12.3298 22 12 22C11.6702 22 11.2599 21.8622 10.7226 21.5278C10.1873 21.1947 9.62952 20.7343 8.99706 20.2033C8.66066 19.9209 8.3188 19.6392 7.9753 19.3562C4.56802 16.5489 1 13.6092 1 8.4788C1 5.71142 2.46852 3.4298 4.41276 2.48336C6.27417 1.57724 8.80661 1.78963 11.2581 4.50209Z" stroke="#383838" stroke-width="2"/>
</g>
</svg>
