<svg width="12" height="12" viewBox="0 0 12 12" fill="none" xmlns="http://www.w3.org/2000/svg">
<g id="faq-svgrepo-com 1" clip-path="url(#clip0_446_57013)">
<path id="Vector" d="M6 0.5C4.91221 0.5 3.84884 0.822569 2.94437 1.42692C2.0399 2.03126 1.33495 2.89025 0.918665 3.89524C0.502383 4.90023 0.393465 6.0061 0.605683 7.073C0.817902 8.13989 1.34173 9.1199 2.11092 9.88909C2.8801 10.6583 3.86011 11.1821 4.92701 11.3943C5.9939 11.6065 7.09977 11.4976 8.10476 11.0813C9.10976 10.6651 9.96874 9.96011 10.5731 9.05564C11.1774 8.15117 11.5 7.0878 11.5 6C11.4983 4.54184 10.9183 3.14389 9.88719 2.11281C8.85611 1.08174 7.45817 0.50172 6 0.5ZM6 10.5C5.10999 10.5 4.23996 10.2361 3.49994 9.74161C2.75992 9.24715 2.18314 8.54434 1.84254 7.72208C1.50195 6.89981 1.41284 5.99501 1.58647 5.12209C1.7601 4.24918 2.18869 3.44736 2.81802 2.81802C3.44736 2.18868 4.24918 1.7601 5.1221 1.58647C5.99501 1.41283 6.89981 1.50195 7.72208 1.84254C8.54434 2.18314 9.24715 2.75991 9.74162 3.49993C10.2361 4.23996 10.5 5.10998 10.5 6C10.4985 7.19303 10.024 8.33677 9.18038 9.18037C8.33678 10.024 7.19303 10.4985 6 10.5ZM6.5 8.25V9.25H5.5V8.25H6.5ZM8 4.75C8.00054 5.04986 7.93338 5.34598 7.80352 5.61627C7.67365 5.88656 7.48445 6.12404 7.25 6.311C6.87129 6.60447 6.6152 7.02826 6.5315 7.5H5.5155C5.55971 7.11452 5.68066 6.74179 5.87121 6.40379C6.06177 6.06579 6.31807 5.76937 6.625 5.532C6.74818 5.43342 6.84628 5.30709 6.91129 5.16334C6.97631 5.01959 7.00639 4.8625 6.99907 4.7049C6.99176 4.5473 6.94726 4.39367 6.86921 4.25656C6.79116 4.11945 6.68178 4.00275 6.55 3.916C6.40313 3.82 6.23414 3.76317 6.05911 3.75092C5.88407 3.73867 5.70882 3.7714 5.55 3.846C5.3806 3.9272 5.23844 4.05586 5.14079 4.21635C5.04315 4.37683 4.99424 4.56223 5 4.75C5 4.88261 4.94732 5.00979 4.85356 5.10355C4.75979 5.19732 4.63261 5.25 4.5 5.25C4.36739 5.25 4.24022 5.19732 4.14645 5.10355C4.05268 5.00979 4 4.88261 4 4.75C3.99256 4.36572 4.09859 3.98777 4.30483 3.66343C4.51106 3.3391 4.80835 3.08277 5.1595 2.9265C5.47078 2.78739 5.81207 2.7289 6.15191 2.75642C6.49174 2.78395 6.81917 2.89661 7.104 3.084C7.37923 3.2662 7.60508 3.51368 7.76142 3.80437C7.91776 4.09507 7.99972 4.41993 8 4.75Z" fill="#AAAAAA"/>
</g>
<defs>
<clipPath id="clip0_446_57013">
<rect width="12" height="12" fill="white"/>
</clipPath>
</defs>
</svg>
