<svg width="18" height="18" viewBox="0 0 18 18" fill="none" xmlns="http://www.w3.org/2000/svg">
<g id="share-ios-export-svgrepo-com 1">
<path id="Vector" d="M6.75 4.5L9 2.25M9 2.25L11.25 4.5M9 2.25V9.75M5.25017 7.5C4.55126 7.5 4.20181 7.5 3.92614 7.61415C3.55861 7.7664 3.26642 8.0586 3.11418 8.42618C3 8.7018 3 9.05107 3 9.75V13.35C3 14.1901 3 14.6099 3.16349 14.9307C3.3073 15.2129 3.5366 15.4429 3.81885 15.5866C4.1394 15.75 4.55924 15.75 5.39768 15.75H12.6027C13.4411 15.75 13.8604 15.75 14.1809 15.5866C14.4632 15.4429 14.6929 15.2129 14.8366 14.9307C15 14.6102 15 14.1908 15 13.3523V9.75C15 9.05107 14.9999 8.7018 14.8858 8.42618C14.7335 8.0586 14.4415 7.7664 14.074 7.61415C13.7983 7.5 13.4489 7.5 12.75 7.5" stroke="#5898E4" stroke-width="1.1" stroke-linecap="round" stroke-linejoin="round"/>
</g>
</svg>
