<svg width="14" height="12" viewBox="0 0 14 12" fill="none" xmlns="http://www.w3.org/2000/svg">
<path d="M0.646447 6.14645C0.451184 6.34171 0.451184 6.65829 0.646447 6.85355L3.82843 10.0355C4.02369 10.2308 4.34027 10.2308 4.53553 10.0355C4.7308 9.84027 4.7308 9.52369 4.53553 9.32843L1.70711 6.5L4.53553 3.67157C4.7308 3.47631 4.7308 3.15973 4.53553 2.96447C4.34027 2.7692 4.02369 2.7692 3.82843 2.96447L0.646447 6.14645ZM13.3536 6.85355C13.5488 6.65829 13.5488 6.34171 13.3536 6.14645L10.1716 2.96447C9.97631 2.7692 9.65973 2.7692 9.46447 2.96447C9.2692 3.15973 9.2692 3.47631 9.46447 3.67157L12.2929 6.5L9.46447 9.32843C9.2692 9.52369 9.2692 9.84027 9.46447 10.0355C9.65973 10.2308 9.97631 10.2308 10.1716 10.0355L13.3536 6.85355ZM1 7H13V6H1V7Z" fill="#383838"/>
</svg>
