<svg width="12" height="13" viewBox="0 0 12 13" fill="none" xmlns="http://www.w3.org/2000/svg">
<path d="M5.64645 12.8536C5.84171 13.0488 6.15829 13.0488 6.35355 12.8536L9.53553 9.67157C9.7308 9.47631 9.7308 9.15973 9.53553 8.96447C9.34027 8.7692 9.02369 8.7692 8.82843 8.96447L6 11.7929L3.17157 8.96447C2.97631 8.7692 2.65973 8.7692 2.46447 8.96447C2.2692 9.15973 2.2692 9.47631 2.46447 9.67157L5.64645 12.8536ZM6.35355 0.146446C6.15829 -0.0488157 5.84171 -0.0488157 5.64645 0.146446L2.46447 3.32843C2.2692 3.52369 2.2692 3.84027 2.46447 4.03553C2.65973 4.2308 2.97631 4.2308 3.17157 4.03553L6 1.20711L8.82843 4.03553C9.02369 4.2308 9.34027 4.2308 9.53553 4.03553C9.7308 3.84027 9.7308 3.52369 9.53553 3.32843L6.35355 0.146446ZM6.5 12.5L6.5 0.5L5.5 0.5L5.5 12.5L6.5 12.5Z" fill="#383838"/>
</svg>
