<svg width="39" height="39" viewBox="0 0 39 39" fill="none" xmlns="http://www.w3.org/2000/svg">
<g id="search-5-svgrepo-com 1">
<path id="Vector" fill-rule="evenodd" clip-rule="evenodd" d="M11.3943 25.2934C10.0452 23.9158 9.13007 22.1725 8.76258 20.2796C8.39205 18.3814 8.58233 16.4164 9.31014 14.6246C10.0318 12.8428 11.2637 11.314 12.8513 10.2301C16.0725 8.03008 20.3131 8.03008 23.5342 10.2301C25.1219 11.314 26.3539 12.8428 27.0754 14.6246C27.8033 16.4164 27.9936 18.3814 27.6229 20.2796C27.2555 22.1725 26.3404 23.9158 24.9912 25.2934C23.2045 27.1269 20.753 28.161 18.1927 28.161C15.6326 28.161 13.1811 27.1269 11.3943 25.2934Z" stroke="#636363" stroke-width="2" stroke-linecap="round" stroke-linejoin="round"/>
<path id="Vector_2" d="M18.2031 12.0158C17.5605 12.0839 17.0948 12.66 17.1628 13.3026C17.231 13.9451 17.8071 14.4109 18.4497 14.3428L18.2031 12.0158ZM21.0912 15.899C21.3432 16.4941 22.0297 16.7722 22.6249 16.5203C23.2199 16.2684 23.498 15.5818 23.2461 14.9867L21.0912 15.899ZM25.9592 24.3148C25.502 23.8584 24.7611 23.859 24.3047 24.3164C23.8481 24.7736 23.8489 25.5144 24.3061 25.9709L25.9592 24.3148ZM29.5914 31.2468C30.0488 31.7034 30.7894 31.7028 31.2461 31.2454C31.7025 30.788 31.7019 30.0473 31.2445 29.5907L29.5914 31.2468ZM18.4497 14.3428C19.5768 14.2233 20.6494 14.8552 21.0912 15.899L23.2461 14.9867C22.4026 12.9941 20.3549 11.7878 18.2031 12.0158L18.4497 14.3428ZM24.3061 25.9709L29.5914 31.2468L31.2445 29.5907L25.9592 24.3148L24.3061 25.9709Z" fill="#636363"/>
</g>
</svg>
