<svg width="216" height="29" viewBox="0 0 216 29" fill="none" xmlns="http://www.w3.org/2000/svg">
<g id="Vector">
<path fill-rule="evenodd" clip-rule="evenodd" d="M171.148 13.0787C171.106 21.3253 171.455 27.0479 172.811 28.3912H167.466C167 28.0134 166.12 26.0053 166.035 25.2078C163.746 28.3556 156.488 30.6136 152.045 25.2078C150.458 23.2772 148.043 16.9397 152.045 11.3996C156.229 5.60763 164.212 7.87404 165.781 9.97256V8.12586H171.165C171.165 9.88092 171.156 11.5336 171.148 13.0787ZM160.694 23.7516C164.065 23.7516 165.696 21.1109 165.696 17.7499C165.696 14.3888 164.065 11.916 160.694 11.916C157.322 11.916 155.521 14.3888 155.521 17.7499C155.521 21.1109 157.322 23.7516 160.694 23.7516Z" fill="#4B2D2B"/>
<path d="M93.941 28.4104V19.7225L100.173 28.4104H106.532L99.0707 18.0017L106.744 8.64227H100.766L93.9834 16.8685V8.64227H88.5994V28.4104H93.941Z" fill="#4B2D2B"/>
<path d="M128.817 27.9487V23.4998C130.83 24.3521 132.108 23.0381 132.387 22.1987C132.667 21.3593 132.506 13.6934 132.506 8.13862H147.937L147.815 28.2148H142.511V12.4196H137.678V21.1495C137.551 26.4797 135.007 27.5374 134.117 27.9487C132.59 28.6538 130.089 28.4943 128.817 27.9487Z" fill="#4B2D2B"/>
<path d="M64.6892 28.4523V8.64227H59.178V24.5631H53.2428V8.64227H47.7316V24.5631H41.7116V8.64227H36.2852V28.4523H64.6892Z" fill="#4B2D2B"/>
<path fill-rule="evenodd" clip-rule="evenodd" d="M76.6443 28.4523C82.5445 28.4523 87.3275 24.0177 87.3275 18.5473C87.3275 13.0769 82.5445 8.64227 76.6443 8.64227C70.7441 8.64227 65.961 13.0769 65.961 18.5473C65.961 24.0177 70.7441 28.4523 76.6443 28.4523ZM76.6443 24.0848C80.0158 24.0848 81.6468 21.6312 81.6468 18.5083C81.6468 15.3854 80.0158 13.0878 76.6443 13.0878C73.2727 13.0878 71.4722 15.3854 71.4722 18.5083C71.4722 21.6312 73.2727 24.0848 76.6443 24.0848Z" fill="#4B2D2B"/>
<path fill-rule="evenodd" clip-rule="evenodd" d="M117.427 28.4523C123.327 28.4523 128.111 23.9049 128.111 18.2955C128.111 12.686 123.327 8.13862 117.427 8.13862C111.527 8.13862 106.744 12.686 106.744 18.2955C106.744 23.9049 111.527 28.4523 117.427 28.4523ZM117.427 23.9737C120.799 23.9737 122.43 21.4577 122.43 18.2555C122.43 15.0532 120.799 12.6972 117.427 12.6972C114.056 12.6972 112.255 15.0532 112.255 18.2555C112.255 21.4577 114.056 23.9737 117.427 23.9737Z" fill="#4B2D2B"/>
<path fill-rule="evenodd" clip-rule="evenodd" d="M189.72 10.4297C189.72 7.6597 187.982 4.56731 181.58 5.11401C179.635 5.2801 177.477 6.00441 175.263 7.53378V3.00098C178.528 0.440788 186.328 -1.02817 191.119 3.00098C192.849 4.45608 194.254 6.85215 194.729 9.67429C195.612 14.9206 195.519 22.2654 191.119 26.1267C187.388 29.4004 179.842 29.1066 176.832 26.1267C174.034 23.8183 171.49 15.9279 176.832 10.6816C178.84 8.70897 185.366 6.40057 189.72 10.4297ZM184.505 23.7516C187.877 23.7516 189.508 21.1109 189.508 17.7499C189.508 14.3888 187.877 11.916 184.505 11.916C181.134 11.916 179.333 14.3888 179.333 17.7499C179.333 21.1109 181.134 23.7516 184.505 23.7516Z" fill="#4B2D2B"/>
<path d="M196.442 17.9871C196.442 16.2048 196.712 14.6516 197.252 13.3275C197.818 11.978 198.551 10.8577 199.451 9.96654C200.352 9.07537 201.38 8.40062 202.538 7.94231C203.721 7.48399 204.929 7.25483 206.164 7.25483C209.045 7.25483 211.321 8.13327 212.992 9.89015C214.664 11.6216 215.5 14.1805 215.5 17.567C215.5 17.898 215.487 18.2672 215.461 18.6746C215.436 19.0565 215.41 19.4002 215.384 19.7058H202.345C202.473 20.877 203.026 21.8064 204.004 22.4939C204.981 23.1814 206.293 23.5251 207.939 23.5251C208.993 23.5251 210.022 23.436 211.025 23.2577C212.054 23.054 212.89 22.8122 213.533 22.5321L214.304 27.1534C213.995 27.3062 213.584 27.459 213.07 27.6118C212.555 27.7645 211.977 27.8918 211.334 27.9937C210.716 28.121 210.048 28.2228 209.327 28.2992C208.607 28.3756 207.887 28.4138 207.167 28.4138C205.341 28.4138 203.746 28.1465 202.383 27.6118C201.046 27.0771 199.927 26.3514 199.027 25.4348C198.153 24.4927 197.497 23.3851 197.059 22.112C196.648 20.8388 196.442 19.4639 196.442 17.9871ZM209.945 15.8101C209.919 15.3263 209.829 14.8553 209.675 14.3969C209.546 13.9386 209.327 13.5312 209.019 13.1748C208.736 12.8183 208.363 12.5255 207.9 12.2963C207.463 12.0672 206.91 11.9526 206.241 11.9526C205.598 11.9526 205.045 12.0672 204.582 12.2963C204.119 12.5 203.734 12.7801 203.425 13.1366C203.116 13.493 202.872 13.9132 202.692 14.3969C202.538 14.8553 202.422 15.3263 202.345 15.8101H209.945Z" fill="#4B2D2B"/>
<path d="M9.41164 28.5H0.5V1.38289H8.64007C10.3375 1.38289 11.8935 1.5102 13.3081 1.76482C14.7483 1.99398 15.9828 2.40137 17.0116 2.987C18.0404 3.57263 18.8377 4.34922 19.4035 5.31678C19.995 6.25888 20.2908 7.43013 20.2908 8.83055C20.2908 10.9439 19.262 12.6117 17.2045 13.8338C18.902 14.4704 20.0593 15.3361 20.6766 16.431C21.2938 17.5258 21.6024 18.7608 21.6024 20.1357C21.6024 22.9111 20.5737 24.999 18.5162 26.3994C16.4844 27.7998 13.4495 28.5 9.41164 28.5ZM6.36394 16.6219V23.4585C6.80116 23.5094 7.27696 23.5476 7.79134 23.5731C8.30572 23.5986 8.87154 23.6113 9.4888 23.6113C11.2891 23.6113 12.7422 23.3567 13.8482 22.8474C14.9541 22.3382 15.507 21.3961 15.507 20.0211C15.507 18.799 15.0441 17.9332 14.1182 17.424C13.1923 16.8893 11.8678 16.6219 10.1446 16.6219H6.36394ZM6.36394 12.077H9.2959C11.1477 12.077 12.4722 11.8478 13.2695 11.3895C14.0668 10.9057 14.4654 10.1418 14.4654 9.0979C14.4654 8.02849 14.0539 7.27736 13.2309 6.84451C12.4079 6.41165 11.1991 6.19522 9.60453 6.19522C9.09015 6.19522 8.53719 6.20795 7.94565 6.23342C7.35412 6.23342 6.82688 6.25888 6.36394 6.3098V12.077Z" fill="#4B2D2B"/>
</g>
</svg>
