<svg width="18" height="22" viewBox="0 0 18 22" fill="none" xmlns="http://www.w3.org/2000/svg">
<path d="M4.11063 7.00079C4.01266 8.04579 3.94391 9.89516 4.56094 10.6824C4.56094 10.6824 4.27047 8.65079 6.87438 6.10188C7.92281 5.07579 8.16516 3.68016 7.79906 2.63344C7.59109 2.04047 7.21125 1.55063 6.88125 1.2086C6.68875 1.00751 6.83656 0.675787 7.11672 0.687818C8.81141 0.763443 11.558 1.23438 12.725 4.16313C13.2372 5.44876 13.275 6.77735 13.0309 8.12829C12.8762 8.9911 12.3263 10.9092 13.5809 11.1447C14.4764 11.3131 14.9095 10.6016 15.1037 10.0894C15.1845 9.87626 15.4647 9.82298 15.6159 9.99313C17.1284 11.7136 17.2573 13.74 16.9445 15.4845C16.3395 18.8567 12.9244 21.3111 9.53156 21.3111C5.29313 21.3111 1.91922 18.8859 1.04438 14.4963C0.692032 12.7242 0.870783 9.21797 3.6036 6.74297C3.80641 6.55735 4.13813 6.72235 4.11063 7.00079Z" fill="url(#paint0_radial_251_11209)"/>
<path d="M11.0802 13.3069C9.51781 11.2959 10.2173 9.00141 10.6006 8.08704C10.6522 7.96672 10.5147 7.85329 10.4064 7.92719C9.73438 8.38438 8.35766 9.46032 7.71656 10.9745C6.84859 13.0216 6.91047 14.0236 7.42438 15.2473C7.73375 15.9847 7.37453 16.1411 7.19406 16.1686C7.01875 16.1961 6.85719 16.0792 6.72828 15.9572C6.35744 15.6012 6.09318 15.1488 5.96516 14.6509C5.93766 14.5444 5.79844 14.5152 5.73484 14.6028C5.25359 15.268 5.00438 16.3353 4.99234 17.0898C4.95453 19.4222 6.88125 21.3128 9.21188 21.3128C12.1492 21.3128 14.2891 18.0644 12.6013 15.3488C12.1114 14.5581 11.6508 14.0408 11.0802 13.3069Z" fill="url(#paint1_radial_251_11209)"/>
<defs>
<radialGradient id="paint0_radial_251_11209" cx="0" cy="0" r="1" gradientUnits="userSpaceOnUse" gradientTransform="translate(8.69209 21.3663) rotate(-179.751) scale(12.1323 19.9083)">
<stop offset="0.314" stop-color="#FF9800"/>
<stop offset="0.662" stop-color="#FF6D00"/>
<stop offset="0.972" stop-color="#F44336"/>
</radialGradient>
<radialGradient id="paint1_radial_251_11209" cx="0" cy="0" r="1" gradientUnits="userSpaceOnUse" gradientTransform="translate(9.37345 9.2916) rotate(90.5787) scale(12.6941 9.55324)">
<stop offset="0.214" stop-color="#FFF176"/>
<stop offset="0.328" stop-color="#FFF27D"/>
<stop offset="0.487" stop-color="#FFF48F"/>
<stop offset="0.672" stop-color="#FFF7AD"/>
<stop offset="0.793" stop-color="#FFF9C4"/>
<stop offset="0.822" stop-color="#FFF8BD" stop-opacity="0.804"/>
<stop offset="0.863" stop-color="#FFF6AB" stop-opacity="0.529"/>
<stop offset="0.91" stop-color="#FFF38D" stop-opacity="0.209"/>
<stop offset="0.941" stop-color="#FFF176" stop-opacity="0"/>
</radialGradient>
</defs>
</svg>
