<svg width="25" height="25" viewBox="0 0 25 25" fill="none" xmlns="http://www.w3.org/2000/svg">
<g id="faq-svgrepo-com 1">
<path id="Vector" d="M12.4974 1.04102C10.2312 1.04102 8.01581 1.71303 6.13149 2.97209C4.24718 4.23115 2.77854 6.0207 1.91128 8.11443C1.04403 10.2082 0.817114 12.5121 1.25924 14.7348C1.70136 16.9575 2.79266 18.9991 4.39514 20.6016C5.99761 22.2041 8.03929 23.2954 10.262 23.7375C12.4847 24.1796 14.7886 23.9527 16.8823 23.0855C18.9761 22.2182 20.7656 20.7496 22.0247 18.8653C23.2837 16.9809 23.9557 14.7656 23.9557 12.4993C23.9522 9.46151 22.7438 6.54912 20.5957 4.40104C18.4476 2.25296 15.5352 1.0446 12.4974 1.04102ZM12.4974 21.8743C10.6432 21.8743 8.83064 21.3245 7.28893 20.2944C5.74722 19.2642 4.5456 17.8001 3.83603 16.087C3.12646 14.3739 2.9408 12.4889 3.30254 10.6704C3.66428 8.85181 4.55716 7.18134 5.86827 5.87022C7.17939 4.55911 8.84986 3.66622 10.6684 3.30449C12.487 2.94275 14.372 3.12841 16.0851 3.83798C17.7981 4.54755 19.2623 5.74917 20.2924 7.29088C21.3226 8.83259 21.8724 10.6451 21.8724 12.4993C21.8694 14.9848 20.8807 17.3676 19.1232 19.1251C17.3657 20.8826 14.9829 21.8713 12.4974 21.8743ZM13.5391 17.1868V19.2702H11.4557V17.1868H13.5391ZM16.6641 9.89518C16.6652 10.5199 16.5253 11.1368 16.2547 11.6999C15.9842 12.263 15.59 12.7578 15.1016 13.1473C14.3126 13.7587 13.7791 14.6415 13.6047 15.6243H11.488C11.5801 14.8213 11.8321 14.0447 12.2291 13.3406C12.6261 12.6364 13.16 12.0189 13.7995 11.5243C14.0561 11.319 14.2605 11.0558 14.3959 10.7563C14.5314 10.4568 14.594 10.1296 14.5788 9.80122C14.5636 9.47289 14.4708 9.15283 14.3082 8.86718C14.1456 8.58153 13.9178 8.33841 13.6432 8.15768C13.3373 7.95768 12.9852 7.83929 12.6205 7.81377C12.2559 7.78824 11.8908 7.85643 11.5599 8.01185C11.207 8.18101 10.9108 8.44906 10.7074 8.78341C10.504 9.11775 10.4021 9.504 10.4141 9.89518C10.4141 10.1714 10.3043 10.4364 10.109 10.6318C9.91362 10.8271 9.64867 10.9368 9.3724 10.9368C9.09613 10.9368 8.83118 10.8271 8.63583 10.6318C8.44048 10.4364 8.33073 10.1714 8.33073 9.89518C8.31524 9.09459 8.53613 8.30721 8.96579 7.63151C9.39544 6.9558 10.0148 6.42178 10.7464 6.09622C11.3949 5.80641 12.1059 5.68455 12.8139 5.7419C13.5219 5.79924 14.204 6.03394 14.7974 6.42435C15.3708 6.80393 15.8413 7.31951 16.167 7.92512C16.4927 8.53073 16.6635 9.20754 16.6641 9.89518Z" fill="#AAAAAA"/>
</g>
</svg>
