<svg width="23" height="24" viewBox="0 0 23 24" fill="none" xmlns="http://www.w3.org/2000/svg">
<g id="pen-svgrepo-com 1">
<path id="Vector" d="M14.854 5.77067L17.5645 8.48124M2.875 20.6246L2.92047 20.3062C3.08139 19.1799 3.16185 18.6167 3.34486 18.0909C3.50726 17.6243 3.7291 17.1805 4.00493 16.7708C4.31577 16.3088 4.71806 15.9065 5.52263 15.102L16.6853 3.93931C17.4338 3.1908 18.6473 3.1908 19.3959 3.93931C20.1444 4.68782 20.1444 5.90138 19.3959 6.64989L8.02838 18.0174C7.29847 18.7473 6.93351 19.1123 6.51782 19.4024C6.14884 19.66 5.75089 19.8735 5.33215 20.0383C4.86039 20.224 4.35443 20.3261 3.3426 20.5302L2.875 20.6246Z" stroke="#898989" stroke-width="2" stroke-linecap="round" stroke-linejoin="round"/>
</g>
</svg>
