<svg width="25" height="25" viewBox="0 0 25 25" fill="none" xmlns="http://www.w3.org/2000/svg">
<g id="Frame 249">
<rect x="0.45" y="0.45" width="24.1" height="24.1" rx="12.05" stroke="#D8D8D8" stroke-width="0.9"/>
<path id="Vector" d="M14.3113 9.38736L15.7394 10.959M8 18L8.02396 17.8154C8.10874 17.1623 8.15113 16.8358 8.24755 16.5309C8.33311 16.2603 8.45 16.0031 8.59532 15.7655C8.75909 15.4976 8.97104 15.2644 9.39494 14.7979L15.2761 8.3255C15.6705 7.8915 16.3099 7.8915 16.7042 8.3255C17.0986 8.7595 17.0986 9.46315 16.7042 9.89715L10.7151 16.4883C10.3306 16.9115 10.1383 17.1231 9.91926 17.2914C9.72486 17.4407 9.5152 17.5645 9.29458 17.66C9.04603 17.7677 8.77946 17.8269 8.24636 17.9453L8 18Z" stroke="#898989" stroke-linecap="round" stroke-linejoin="round"/>
</g>
</svg>
