<svg width="33" height="33" viewBox="0 0 33 33" fill="none" xmlns="http://www.w3.org/2000/svg">
<g id="photo-svgrepo-com (1) 1" clip-path="url(#clip0_1_5758)">
<path id="Vector" d="M33.3705 9.85957V26.7417C33.3687 27.4259 33.0961 28.0816 32.6122 28.5655C32.1284 29.0493 31.4727 29.3219 30.7884 29.3238H2.58211C1.89785 29.3219 1.24215 29.0493 0.758307 28.5655C0.274465 28.0816 0.00183365 27.4259 0 26.7417V9.85957C0.00183365 9.17532 0.274465 8.51961 0.758307 8.03577C1.24215 7.55193 1.89785 7.2793 2.58211 7.27747H9.30253V6.4322C9.30436 5.74795 9.57699 5.09225 10.0608 4.6084C10.5447 4.12456 11.2004 3.85193 11.8846 3.8501H21.4859C22.1701 3.85193 22.8258 4.12456 23.3097 4.6084C23.7935 5.09225 24.0662 5.74795 24.068 6.4322V7.27747H30.7884C31.4727 7.2793 32.1284 7.55193 32.6122 8.03577C33.0961 8.51961 33.3687 9.17532 33.3705 9.85957ZM24.596 18.3006C24.596 16.736 24.132 15.2066 23.2628 13.9057C22.3936 12.6047 21.1581 11.5908 19.7126 10.9921C18.2671 10.3933 16.6765 10.2367 15.142 10.5419C13.6074 10.8471 12.1979 11.6006 11.0915 12.7069C9.98519 13.8132 9.23177 15.2228 8.92653 16.7573C8.62129 18.2918 8.77795 19.8824 9.37669 21.3279C9.97544 22.7734 10.9894 24.0089 12.2903 24.8782C13.5912 25.7474 15.1207 26.2114 16.6853 26.2114C18.7833 26.2114 20.7954 25.3779 22.279 23.8944C23.7626 22.4108 24.596 20.3987 24.596 18.3006ZM20.4531 14.5305C21.3253 15.4018 21.8685 16.5485 21.99 17.7754C22.1115 19.0022 21.8039 20.2332 21.1195 21.2587C20.4351 22.2841 19.4163 23.0405 18.2368 23.399C17.0572 23.7575 15.7898 23.6959 14.6505 23.2246C13.5113 22.7534 12.5707 21.9017 11.9891 20.8147C11.4074 19.7277 11.2206 18.4726 11.4606 17.2633C11.7006 16.0541 12.3525 14.9654 13.3052 14.1829C14.2579 13.4004 15.4524 12.9725 16.6853 12.972C17.3853 12.9701 18.0788 13.1071 18.7255 13.375C19.3722 13.6429 19.9594 14.0365 20.4531 14.5328V14.5305ZM18.964 6.97641C18.9635 7.23209 19.0389 7.48215 19.1807 7.69496C19.3224 7.90776 19.524 8.07375 19.7601 8.17191C19.9962 8.27007 20.2561 8.29599 20.5069 8.24639C20.7577 8.19679 20.9882 8.07391 21.1691 7.89328C21.3501 7.71265 21.4734 7.48241 21.5234 7.23168C21.5735 6.98095 21.548 6.72101 21.4503 6.48476C21.3525 6.2485 21.1869 6.04655 20.9744 5.90446C20.7618 5.76236 20.5119 5.68652 20.2562 5.68652C19.9139 5.68652 19.5856 5.82234 19.3433 6.06418C19.101 6.30602 18.9646 6.6341 18.964 6.97641Z" fill="#D1D1D1"/>
</g>
<defs>
<clipPath id="clip0_1_5758">
<rect width="33" height="33" fill="white"/>
</clipPath>
</defs>
</svg>
