<svg width="215" height="28" viewBox="0 0 215 28" fill="none" xmlns="http://www.w3.org/2000/svg">
<g id="Vector">
<path fill-rule="evenodd" clip-rule="evenodd" d="M170.648 12.5787C170.606 20.8253 170.955 26.5479 172.311 27.8912H166.966C166.5 27.5134 165.62 25.5053 165.535 24.7078C163.246 27.8556 155.988 30.1136 151.545 24.7078C149.958 22.7772 147.543 16.4397 151.545 10.8996C155.729 5.10763 163.712 7.37404 165.281 9.47256V7.62586H170.665C170.665 9.38092 170.656 11.0336 170.648 12.5787ZM160.194 23.2516C163.565 23.2516 165.196 20.6109 165.196 17.2499C165.196 13.8888 163.565 11.416 160.194 11.416C156.822 11.416 155.021 13.8888 155.021 17.2499C155.021 20.6109 156.822 23.2516 160.194 23.2516Z" fill="#EDE8E2"/>
<path d="M93.441 27.9104V19.2225L99.6729 27.9104H106.032L98.5707 17.5017L106.244 8.14227H100.266L93.4834 16.3685V8.14227H88.0994V27.9104H93.441Z" fill="#EDE8E2"/>
<path d="M128.317 27.4487V22.9998C130.33 23.8521 131.608 22.5381 131.887 21.6987C132.167 20.8593 132.006 13.1934 132.006 7.63862H147.437L147.315 27.7148H142.011V11.9196H137.178V20.6495C137.051 25.9797 134.507 27.0374 133.617 27.4487C132.09 28.1538 129.589 27.9943 128.317 27.4487Z" fill="#EDE8E2"/>
<path d="M64.1892 27.9523V8.14227H58.678V24.0631H52.7428V8.14227H47.2316V24.0631H41.2116V8.14227H35.7852V27.9523H64.1892Z" fill="#EDE8E2"/>
<path fill-rule="evenodd" clip-rule="evenodd" d="M76.1443 27.9523C82.0445 27.9523 86.8275 23.5177 86.8275 18.0473C86.8275 12.5769 82.0445 8.14227 76.1443 8.14227C70.2441 8.14227 65.461 12.5769 65.461 18.0473C65.461 23.5177 70.2441 27.9523 76.1443 27.9523ZM76.1443 23.5848C79.5158 23.5848 81.1468 21.1312 81.1468 18.0083C81.1468 14.8854 79.5158 12.5878 76.1443 12.5878C72.7727 12.5878 70.9722 14.8854 70.9722 18.0083C70.9722 21.1312 72.7727 23.5848 76.1443 23.5848Z" fill="#EDE8E2"/>
<path fill-rule="evenodd" clip-rule="evenodd" d="M116.927 27.9523C122.827 27.9523 127.611 23.4049 127.611 17.7955C127.611 12.186 122.827 7.63862 116.927 7.63862C111.027 7.63862 106.244 12.186 106.244 17.7955C106.244 23.4049 111.027 27.9523 116.927 27.9523ZM116.927 23.4737C120.299 23.4737 121.93 20.9577 121.93 17.7555C121.93 14.5532 120.299 12.1972 116.927 12.1972C113.556 12.1972 111.755 14.5532 111.755 17.7555C111.755 20.9577 113.556 23.4737 116.927 23.4737Z" fill="#EDE8E2"/>
<path fill-rule="evenodd" clip-rule="evenodd" d="M189.22 9.92975C189.22 7.1597 187.482 4.06731 181.08 4.61401C179.135 4.7801 176.977 5.50441 174.763 7.03378V2.50098C178.028 -0.0592117 185.828 -1.52817 190.619 2.50098C192.349 3.95608 193.754 6.35215 194.229 9.17429C195.112 14.4206 195.019 21.7654 190.619 25.6267C186.888 28.9004 179.342 28.6066 176.332 25.6267C173.534 23.3183 170.99 15.4279 176.332 10.1816C178.34 8.20897 184.866 5.90057 189.22 9.92975ZM184.005 23.2516C187.377 23.2516 189.008 20.6109 189.008 17.2499C189.008 13.8888 187.377 11.416 184.005 11.416C180.634 11.416 178.833 13.8888 178.833 17.2499C178.833 20.6109 180.634 23.2516 184.005 23.2516Z" fill="#EDE8E2"/>
<path d="M195.942 17.4871C195.942 15.7048 196.212 14.1516 196.752 12.8275C197.318 11.478 198.051 10.3577 198.951 9.46654C199.852 8.57537 200.88 7.90062 202.038 7.44231C203.221 6.98399 204.429 6.75483 205.664 6.75483C208.545 6.75483 210.821 7.63327 212.492 9.39015C214.164 11.1216 215 13.6805 215 17.067C215 17.398 214.987 17.7672 214.961 18.1746C214.936 18.5565 214.91 18.9002 214.884 19.2058H201.845C201.973 20.377 202.526 21.3064 203.504 21.9939C204.481 22.6814 205.793 23.0251 207.439 23.0251C208.493 23.0251 209.522 22.936 210.525 22.7577C211.554 22.554 212.39 22.3122 213.033 22.0321L213.804 26.6534C213.495 26.8062 213.084 26.959 212.57 27.1118C212.055 27.2645 211.477 27.3918 210.834 27.4937C210.216 27.621 209.548 27.7228 208.827 27.7992C208.107 27.8756 207.387 27.9138 206.667 27.9138C204.841 27.9138 203.246 27.6465 201.883 27.1118C200.546 26.5771 199.427 25.8514 198.527 24.9348C197.653 23.9927 196.997 22.8851 196.559 21.612C196.148 20.3388 195.942 18.9639 195.942 17.4871ZM209.445 15.3101C209.419 14.8263 209.329 14.3553 209.175 13.8969C209.046 13.4386 208.827 13.0312 208.519 12.6748C208.236 12.3183 207.863 12.0255 207.4 11.7963C206.963 11.5672 206.41 11.4526 205.741 11.4526C205.098 11.4526 204.545 11.5672 204.082 11.7963C203.619 12 203.234 12.2801 202.925 12.6366C202.616 12.993 202.372 13.4132 202.192 13.8969C202.038 14.3553 201.922 14.8263 201.845 15.3101H209.445Z" fill="#EDE8E2"/>
<path d="M8.91164 28H0V0.882891H8.14007C9.83752 0.882891 11.3935 1.0102 12.8081 1.26482C14.2483 1.49398 15.4828 1.90137 16.5116 2.487C17.5404 3.07263 18.3377 3.84922 18.9035 4.81678C19.495 5.75888 19.7908 6.93013 19.7908 8.33055C19.7908 10.4439 18.762 12.1117 16.7045 13.3338C18.402 13.9704 19.5593 14.8361 20.1766 15.931C20.7938 17.0258 21.1024 18.2608 21.1024 19.6357C21.1024 22.4111 20.0737 24.499 18.0162 25.8994C15.9844 27.2998 12.9495 28 8.91164 28ZM5.86394 16.1219V22.9585C6.30116 23.0094 6.77696 23.0476 7.29134 23.0731C7.80572 23.0986 8.37154 23.1113 8.9888 23.1113C10.7891 23.1113 12.2422 22.8567 13.3482 22.3474C14.4541 21.8382 15.007 20.8961 15.007 19.5211C15.007 18.299 14.5441 17.4332 13.6182 16.924C12.6923 16.3893 11.3678 16.1219 9.64463 16.1219H5.86394ZM5.86394 11.577H8.7959C10.6477 11.577 11.9722 11.3478 12.7695 10.8895C13.5668 10.4057 13.9654 9.64184 13.9654 8.5979C13.9654 7.52849 13.5539 6.77736 12.7309 6.34451C11.9079 5.91165 10.6991 5.69522 9.10453 5.69522C8.59015 5.69522 8.03719 5.70795 7.44565 5.73342C6.85412 5.73342 6.32688 5.75888 5.86394 5.8098V11.577Z" fill="#EDE8E2"/>
</g>
</svg>
