<svg width="100" height="100" viewBox="0 0 100 100" fill="none" xmlns="http://www.w3.org/2000/svg">
<g id="icon9/calend">
<g id="Vector">
<path d="M35.6523 11.2622C34.6634 11.7486 34.404 12.3159 34.3554 14.1802L34.2876 16H27.998C21.0111 16 20.998 16 19.998 16C19.998 16.5 20.0467 17.577 19.998 21.5V25.5765H87.9974L87.9488 16C82.498 16 88.252 16 79.498 16H73.3913V14.3747C73.3913 12.0079 72.6943 11.0677 70.9597 11.0677C69.2251 11.0677 68.5281 12.0079 68.5281 14.3747V16H56.2078V14.3747C56.2078 12.0079 55.5107 11.0677 53.7761 11.0677C52.0416 11.0677 51.3445 12.0079 51.3445 14.3747L51.311 16H39.1863V14.3423C39.1863 13.0941 39.1214 12.7536 38.8134 12.2187C38.1812 11.1001 36.8195 10.6786 35.6523 11.2622Z" fill="white"/>
<path d="M19.5062 32.4824C18.874 44.5433 13.8972 56.8636 6.68333 64.2234C5.92142 65.0177 5.08013 65.7893 4.99907 66C4.99805 67.5 4.999 68 4.99805 69C5.99841 69 7.99643 69.346 39.1539 69.346C70.7166 69.346 71.4784 69.346 72.062 69.038C72.3863 68.8597 73.1806 68.1951 73.8128 67.5304C78.287 62.9427 82.2911 56.1017 84.6417 49.0337C86.3439 43.9435 87.5111 37.7509 87.7704 32.5796L87.8677 30.4398H19.6197L19.5062 32.4824Z" fill="white"/>
<path d="M87.5111 55.3398C85.3064 60.7218 81.1564 67.0441 77.2657 70.9509C75.4987 72.7017 74.7044 73.3015 73.4238 73.7878L72.4996 74L19.9996 74.1283V78C19.9996 81.5826 19.9996 83.5 19.9996 84C20.4996 84 20.4996 84 20.9996 84C21.4996 84 21.9216 83.9359 53.8572 83.9359C85.7927 83.9359 87.4996 84 87.9996 84C87.9996 83.5 87.9996 83.5 87.9996 82.5C87.9996 81.5 87.9812 81.7636 87.9487 68.195L87.9001 54.3833L87.5111 55.3398Z" fill="white"/>
</g>
</g>
</svg>
