<svg width="100" height="100" viewBox="0 0 100 100" fill="none" xmlns="http://www.w3.org/2000/svg">
<g clip-path="url(#clip0_35_4208)">
<path d="M13.0004 19.3327V42.1287H44.3758L43.2446 40.9557C43.1973 40.9514 43.1583 40.9488 43.1084 40.9446C42.519 40.8972 41.7018 40.8222 40.7429 40.7138C38.8235 40.4929 36.3483 40.1357 33.9883 39.5548C32.4121 39.1628 30.8889 38.6847 29.5576 38.0106C28.7988 37.623 28.0899 37.1712 27.4701 36.5555C25.4867 34.5735 24.4847 31.955 24.4876 29.3548C24.4847 26.7544 25.4841 24.1346 27.4701 22.1499C29.4547 20.1666 32.0732 19.1659 34.6721 19.1674C37.2711 19.1659 39.8909 20.1666 41.8743 22.1513C42.4468 22.7267 42.8763 23.38 43.2473 24.0803C43.617 24.7808 43.9241 25.5354 44.1951 26.3248C44.7345 27.9037 45.1293 29.634 45.4322 31.3019C45.9367 34.0912 46.18 36.6999 46.2771 37.9732L47.1304 38.8571V8H13C13.0004 14 13.0004 13.0729 13.0004 19.3327Z" fill="white"/>
<path d="M68.4073 34.2204C68.9007 33.9717 69.2524 33.716 69.415 33.5478C70.5783 32.383 71.1509 30.8793 71.1524 29.3532C71.1509 27.8272 70.5783 26.3206 69.4164 25.1589H69.415C68.2503 23.9956 66.7465 23.4242 65.2205 23.4216C63.6944 23.4244 62.1907 23.9969 61.0259 25.1589C60.8814 25.3005 60.6701 25.5786 60.4575 25.9706C60.242 26.3611 60.0224 26.86 59.8182 27.427C59.4053 28.5612 59.0523 29.9649 58.7744 31.3839C58.4076 33.2463 58.1658 35.1266 58.0156 36.5581C58.2242 36.5373 58.4408 36.5137 58.666 36.4873C60.4728 36.2801 62.8078 35.9383 64.8869 35.4254C66.2712 35.0863 67.5443 34.6625 68.4073 34.2204Z" fill="white"/>
<path d="M75.6684 8H52.8711V38.7457L53.6162 37.9716C53.6203 37.9118 53.6244 37.8604 53.63 37.7951C53.6773 37.2059 53.7509 36.3885 53.8607 35.4297C54.0802 33.5118 54.4374 31.0337 55.0183 28.6723C55.4089 27.0949 55.8896 25.573 56.5624 24.2388C56.9529 23.4786 57.4046 22.7697 58.0189 22.1512C60.0023 20.1665 62.622 19.1658 65.221 19.1672C67.82 19.1658 70.4397 20.1665 72.423 22.1498C74.4077 24.1345 75.4084 26.7515 75.407 29.3532C75.4084 31.9522 74.4077 34.5734 72.423 36.5566C71.8463 37.1278 71.193 37.5559 70.4939 37.9284C69.7921 38.2981 69.0388 38.6052 68.2494 38.8762C66.6719 39.4142 64.9431 39.8074 63.2752 40.1104C60.5178 40.6107 57.9382 40.8554 56.6484 40.9554L55.5172 42.1285H87.0011V8.00001C80 8 81.9269 8 75.6684 8Z" fill="white"/>
<path d="M67.1365 59.6266L64.0731 62.577L52.8711 50.9483V82H75.6686C81.9271 82 82 82 87.0013 82V47.8701H55.8122L67.1365 59.6266Z" fill="white"/>
<path d="M32.7563 59.6266L44.0807 47.8701H13V82C18 82 18.0742 82 24.3327 82H47.13V50.8373L35.8196 62.5772L32.7563 59.6266Z" fill="white"/>
<path d="M40.7456 29.687C40.4065 28.3027 39.9813 27.0311 39.5393 26.168C39.2906 25.6732 39.0348 25.323 38.8665 25.1591C37.7032 23.9971 36.198 23.4245 34.6719 23.4219C33.146 23.4246 31.6421 23.9958 30.4775 25.1591C29.3156 26.321 28.7428 27.8276 28.7402 29.3549C28.7428 30.8795 29.3156 32.3861 30.4775 33.548C30.6193 33.6924 30.8972 33.9039 31.2892 34.1165C31.6783 34.332 32.1772 34.5501 32.743 34.7543C33.8785 35.1658 35.2809 35.5202 36.6984 35.7981C38.562 36.1663 40.4454 36.4083 41.8783 36.5583C41.8575 36.3512 41.8325 36.1357 41.8074 35.9107C41.6018 34.1053 41.2598 31.769 40.7456 29.687Z" fill="white"/>
</g>
<defs>
<clipPath id="clip0_35_4208">
<rect width="74" height="74" fill="white" transform="translate(13 8)"/>
</clipPath>
</defs>
</svg>
