<svg width="74" height="74" viewBox="0 0 74 74" fill="none" xmlns="http://www.w3.org/2000/svg">
<g id="gift-svgrepo-com (2) 1" clip-path="url(#clip0_35_4209)">
<g id="Group">
<path id="Vector" d="M0.000387907 11.3327V34.1287H31.3758L30.2446 32.9557C30.1973 32.9514 30.1583 32.9488 30.1084 32.9446C29.519 32.8972 28.7018 32.8222 27.7429 32.7138C25.8235 32.4929 23.3483 32.1357 20.9883 31.5548C19.4121 31.1628 17.8889 30.6847 16.5576 30.0106C15.7988 29.623 15.0899 29.1712 14.4701 28.5555C12.4867 26.5735 11.4847 23.955 11.4876 21.3548C11.4847 18.7544 12.4841 16.1346 14.4701 14.1499C16.4547 12.1666 19.0732 11.1659 21.6721 11.1674C24.2711 11.1659 26.8909 12.1666 28.8743 14.1513C29.4468 14.7267 29.8763 15.38 30.2473 16.0803C30.617 16.7808 30.9241 17.5354 31.1951 18.3248C31.7345 19.9037 32.1293 21.634 32.4322 23.3019C32.9367 26.0912 33.18 28.6999 33.2771 29.9732L34.1304 30.8571V0H0C0.000387907 6 0.000387907 5.0729 0.000387907 11.3327Z" fill="white"/>
<path id="Vector_2" d="M55.4073 26.2204C55.9007 25.9717 56.2524 25.716 56.415 25.5478C57.5783 24.383 58.1509 22.8793 58.1524 21.3532C58.1509 19.8272 57.5783 18.3206 56.4164 17.1589H56.415C55.2503 15.9956 53.7465 15.4242 52.2205 15.4216C50.6944 15.4244 49.1907 15.9969 48.0259 17.1589C47.8814 17.3005 47.6701 17.5786 47.4575 17.9706C47.242 18.3611 47.0224 18.86 46.8182 19.427C46.4053 20.5612 46.0523 21.9649 45.7744 23.3839C45.4076 25.2463 45.1658 27.1266 45.0156 28.5581C45.2242 28.5373 45.4408 28.5137 45.666 28.4873C47.4728 28.2801 49.8078 27.9383 51.8869 27.4254C53.2712 27.0863 54.5443 26.6625 55.4073 26.2204Z" fill="white"/>
<path id="Vector_3" d="M62.6684 0H39.8711V30.7457L40.6162 29.9716C40.6203 29.9118 40.6244 29.8604 40.63 29.7951C40.6773 29.2059 40.7509 28.3885 40.8607 27.4297C41.0802 25.5118 41.4374 23.0337 42.0183 20.6723C42.4089 19.0949 42.8896 17.573 43.5624 16.2388C43.9529 15.4786 44.4046 14.7697 45.0189 14.1512C47.0023 12.1665 49.622 11.1658 52.221 11.1672C54.82 11.1658 57.4397 12.1665 59.423 14.1498C61.4077 16.1345 62.4084 18.7515 62.407 21.3532C62.4084 23.9522 61.4077 26.5734 59.423 28.5566C58.8463 29.1278 58.193 29.5559 57.4939 29.9284C56.7921 30.2981 56.0388 30.6052 55.2494 30.8762C53.6719 31.4142 51.9431 31.8074 50.2752 32.1104C47.5178 32.6107 44.9382 32.8554 43.6484 32.9554L42.5172 34.1285H74.0011V1.49012e-05C67 0 68.9269 0 62.6684 0Z" fill="white"/>
<path id="Vector_4" d="M54.1365 51.6266L51.0731 54.577L39.8711 42.9483V74H62.6686C68.9271 74 69 74 74.0013 74V39.8701H42.8122L54.1365 51.6266Z" fill="white"/>
<path id="Vector_5" d="M19.7563 51.6266L31.0807 39.8701H0V74C5 74 5.0742 74 11.3327 74H34.13V42.8373L22.8196 54.5772L19.7563 51.6266Z" fill="white"/>
<path id="Vector_6" d="M27.7456 21.687C27.4065 20.3027 26.9813 19.0311 26.5393 18.168C26.2906 17.6732 26.0348 17.323 25.8665 17.1591C24.7032 15.9971 23.198 15.4245 21.6719 15.4219C20.146 15.4246 18.6421 15.9958 17.4775 17.1591C16.3156 18.321 15.7428 19.8276 15.7402 21.3549C15.7428 22.8795 16.3156 24.3861 17.4775 25.548C17.6193 25.6924 17.8972 25.9039 18.2892 26.1165C18.6783 26.332 19.1772 26.5501 19.743 26.7543C20.8785 27.1658 22.2809 27.5202 23.6984 27.7981C25.562 28.1663 27.4454 28.4083 28.8783 28.5583C28.8575 28.3512 28.8325 28.1357 28.8074 27.9107C28.6018 26.1053 28.2598 23.769 27.7456 21.687Z" fill="white"/>
</g>
</g>
<defs>
<clipPath id="clip0_35_4209">
<rect width="74" height="74" fill="white"/>
</clipPath>
</defs>
</svg>
