<svg width="100" height="100" viewBox="0 0 100 100" fill="none" xmlns="http://www.w3.org/2000/svg">
<g id="icon9/sms">
<path id="Vector" d="M77.6248 12H11.9991C11.9961 19.5 11.9998 16.1895 11.9998 21.375V58.875C11.9998 64.0605 12.0025 63.5 12.0025 68.25H40.1248L33.8699 87L61.9949 68.25H77.6248C82.8104 68.25 83.5018 68.25 86.9998 68.25V12C80.4998 12 82.8104 12 77.6248 12ZM30.7498 46.3799C27.2928 46.3799 24.4949 43.582 24.4949 40.125C24.4949 36.668 27.2928 33.8701 30.7498 33.8701C34.2068 33.8701 37.0047 36.668 37.0047 40.125C37.0047 43.582 34.2068 46.3799 30.7498 46.3799ZM49.4998 46.3799C46.0428 46.3799 43.2449 43.582 43.2449 40.125C43.2449 36.668 46.0428 33.8701 49.4998 33.8701C52.9568 33.8701 55.7547 36.668 55.7547 40.125C55.7547 43.582 52.9568 46.3799 49.4998 46.3799ZM68.2498 46.3799C64.7928 46.3799 61.9949 43.582 61.9949 40.125C61.9949 36.668 64.7928 33.8701 68.2498 33.8701C71.7068 33.8701 74.5047 36.668 74.5047 40.125C74.5047 43.582 71.7068 46.3799 68.2498 46.3799Z" fill="white"/>
</g>
</svg>
