<svg width="20" height="20" viewBox="0 0 20 20" fill="none" xmlns="http://www.w3.org/2000/svg">
<g id="close-ellipse-svgrepo-com 1" clip-path="url(#clip0_446_56892)">
<g id="Vector">
<path d="M6.67249 7.84717C6.34705 7.52172 6.34705 6.99409 6.67249 6.66866C6.99792 6.34321 7.52556 6.34321 7.851 6.66866L10.0074 8.82503L12.1615 6.67084C12.487 6.34541 13.0146 6.34541 13.34 6.67084C13.6655 6.99628 13.6655 7.52391 13.34 7.84936L11.1859 10.0035L13.3392 12.1568C13.6646 12.4823 13.6646 13.0099 13.3392 13.3353C13.0137 13.6608 12.4861 13.6608 12.1606 13.3353L10.0074 11.182L7.85341 13.336C7.52798 13.6614 7.00034 13.6614 6.6749 13.336C6.34947 13.0105 6.34947 12.4829 6.6749 12.1574L8.82885 10.0035L6.67249 7.84717Z" fill="#AAAAAA"/>
<path fill-rule="evenodd" clip-rule="evenodd" d="M19.1693 9.9987C19.1693 15.0613 15.0652 19.1654 10.0026 19.1654C4.94 19.1654 0.835938 15.0613 0.835938 9.9987C0.835938 4.93609 4.94 0.832031 10.0026 0.832031C15.0652 0.832031 19.1693 4.93609 19.1693 9.9987ZM2.5083 9.9987C2.5083 14.1377 5.86361 17.493 10.0026 17.493C14.1416 17.493 17.4969 14.1377 17.4969 9.9987C17.4969 5.85971 14.1416 2.50439 10.0026 2.50439C5.86361 2.50439 2.5083 5.85971 2.5083 9.9987Z" fill="#AAAAAA"/>
</g>
</g>
<defs>
<clipPath id="clip0_446_56892">
<rect width="20" height="20" fill="white"/>
</clipPath>
</defs>
</svg>
