<svg width="23" height="24" viewBox="0 0 23 24" fill="none" xmlns="http://www.w3.org/2000/svg">
<g id="geo-alt-svgrepo-com 1" clip-path="url(#clip0_446_56887)">
<g id="Vector">
<path d="M17.4886 13.3512C16.7354 14.8779 15.7148 16.3988 14.6711 17.7644C13.6811 19.0518 12.6225 20.2851 11.5 21.4587C10.3774 20.2851 9.31886 19.0518 8.32888 17.7644C7.28525 16.3988 6.26463 14.8779 5.51138 13.3512C4.7495 11.8088 4.3125 10.3641 4.3125 9.125C4.3125 7.21876 5.06975 5.39059 6.41767 4.04267C7.76559 2.69475 9.59376 1.9375 11.5 1.9375C13.4062 1.9375 15.2344 2.69475 16.5823 4.04267C17.9302 5.39059 18.6875 7.21876 18.6875 9.125C18.6875 10.3641 18.2491 11.8088 17.4886 13.3512ZM11.5 23.5C11.5 23.5 20.125 15.3264 20.125 9.125C20.125 6.83751 19.2163 4.64371 17.5988 3.0262C15.9813 1.4087 13.7875 0.5 11.5 0.5C9.21251 0.5 7.01871 1.4087 5.4012 3.0262C3.7837 4.64371 2.875 6.83751 2.875 9.125C2.875 15.3264 11.5 23.5 11.5 23.5Z" fill="#757575"/>
<path d="M11.5 12C10.7375 12 10.0062 11.6971 9.46707 11.1579C8.9279 10.6188 8.625 9.8875 8.625 9.125C8.625 8.3625 8.9279 7.63124 9.46707 7.09207C10.0062 6.5529 10.7375 6.25 11.5 6.25C12.2625 6.25 12.9938 6.5529 13.5329 7.09207C14.0721 7.63124 14.375 8.3625 14.375 9.125C14.375 9.8875 14.0721 10.6188 13.5329 11.1579C12.9938 11.6971 12.2625 12 11.5 12ZM11.5 13.4375C12.6437 13.4375 13.7406 12.9831 14.5494 12.1744C15.3581 11.3656 15.8125 10.2687 15.8125 9.125C15.8125 7.98125 15.3581 6.88435 14.5494 6.0756C13.7406 5.26685 12.6437 4.8125 11.5 4.8125C10.3563 4.8125 9.25935 5.26685 8.4506 6.0756C7.64185 6.88435 7.1875 7.98125 7.1875 9.125C7.1875 10.2687 7.64185 11.3656 8.4506 12.1744C9.25935 12.9831 10.3563 13.4375 11.5 13.4375Z" fill="#757575"/>
</g>
</g>
<defs>
<clipPath id="clip0_446_56887">
<rect width="23" height="23" fill="white" transform="translate(0 0.5)"/>
</clipPath>
</defs>
</svg>
