<svg width="25" height="25" viewBox="0 0 25 25" fill="none" xmlns="http://www.w3.org/2000/svg">
<g id="faq-svgrepo-com 1">
<path id="Vector" d="M12.4974 1.04297C10.2312 1.04297 8.01581 1.71499 6.13149 2.97405C4.24718 4.2331 2.77854 6.02265 1.91128 8.11639C1.04403 10.2101 0.817114 12.514 1.25924 14.7367C1.70136 16.9594 2.79266 19.0011 4.39514 20.6036C5.99761 22.206 8.03929 23.2973 10.262 23.7395C12.4847 24.1816 14.7886 23.9547 16.8823 23.0874C18.9761 22.2202 20.7656 20.7515 22.0247 18.8672C23.2837 16.9829 23.9557 14.7675 23.9557 12.5013C23.9522 9.46346 22.7438 6.55107 20.5957 4.403C18.4476 2.25492 15.5352 1.04655 12.4974 1.04297ZM12.4974 21.8763C10.6432 21.8763 8.83064 21.3265 7.28893 20.2963C5.74722 19.2662 4.5456 17.802 3.83603 16.089C3.12646 14.3759 2.9408 12.4909 3.30254 10.6723C3.66428 8.85376 4.55716 7.18329 5.86827 5.87218C7.17939 4.56106 8.84986 3.66818 10.6684 3.30644C12.487 2.9447 14.372 3.13036 16.0851 3.83993C17.7981 4.5495 19.2623 5.75112 20.2924 7.29283C21.3226 8.83454 21.8724 10.6471 21.8724 12.5013C21.8694 14.9868 20.8807 17.3696 19.1232 19.1271C17.3657 20.8846 14.9829 21.8733 12.4974 21.8763ZM13.5391 17.1888V19.2721H11.4557V17.1888H13.5391ZM16.6641 9.89713C16.6652 10.5219 16.5253 11.1388 16.2547 11.7019C15.9842 12.265 15.59 12.7597 15.1016 13.1492C14.3126 13.7606 13.7791 14.6435 13.6047 15.6263H11.488C11.5801 14.8232 11.8321 14.0467 12.2291 13.3425C12.6261 12.6384 13.16 12.0208 13.7995 11.5263C14.0561 11.3209 14.2605 11.0577 14.3959 10.7583C14.5314 10.4588 14.594 10.1315 14.5788 9.80317C14.5636 9.47484 14.4708 9.15478 14.3082 8.86913C14.1456 8.58349 13.9178 8.34036 13.6432 8.15964C13.3373 7.95964 12.9852 7.84124 12.6205 7.81572C12.2559 7.79019 11.8908 7.85838 11.5599 8.0138C11.207 8.18296 10.9108 8.45101 10.7074 8.78536C10.504 9.11971 10.4021 9.50595 10.4141 9.89713C10.4141 10.1734 10.3043 10.4384 10.109 10.6337C9.91362 10.8291 9.64867 10.9388 9.3724 10.9388C9.09613 10.9388 8.83118 10.8291 8.63583 10.6337C8.44048 10.4384 8.33073 10.1734 8.33073 9.89713C8.31524 9.09655 8.53613 8.30916 8.96579 7.63346C9.39544 6.95775 10.0148 6.42373 10.7464 6.09818C11.3949 5.80836 12.1059 5.68651 12.8139 5.74385C13.5219 5.8012 14.204 6.0359 14.7974 6.4263C15.3708 6.80588 15.8413 7.32147 16.167 7.92708C16.4927 8.53269 16.6635 9.20949 16.6641 9.89713Z" fill="#AAAAAA"/>
</g>
</svg>
