<svg width="39" height="40" viewBox="0 0 39 40" fill="none" xmlns="http://www.w3.org/2000/svg">
<g id="search-5-svgrepo-com 1">
<path id="Vector" fill-rule="evenodd" clip-rule="evenodd" d="M11.3943 25.7934C10.0452 24.4158 9.13007 22.6725 8.76258 20.7796C8.39205 18.8814 8.58233 16.9164 9.31014 15.1246C10.0318 13.3428 11.2637 11.814 12.8513 10.7301C16.0725 8.53008 20.3131 8.53008 23.5342 10.7301C25.1219 11.814 26.3539 13.3428 27.0754 15.1246C27.8033 16.9164 27.9936 18.8814 27.6229 20.7796C27.2555 22.6725 26.3404 24.4158 24.9912 25.7934C23.2045 27.6269 20.753 28.661 18.1927 28.661C15.6326 28.661 13.1811 27.6269 11.3943 25.7934Z" stroke="#636363" stroke-width="2" stroke-linecap="round" stroke-linejoin="round"/>
<path id="Vector_2" d="M18.207 12.5165C17.5644 12.5846 17.0987 13.1607 17.1668 13.8033C17.2349 14.4459 17.811 14.9116 18.4536 14.8435L18.207 12.5165ZM21.0951 16.3997C21.3471 16.9948 22.0336 17.2729 22.6288 17.021C23.2238 16.7691 23.5019 16.0825 23.25 15.4875L21.0951 16.3997ZM25.9631 24.8155C25.5059 24.3591 24.765 24.3597 24.3086 24.8171C23.852 25.2743 23.8528 26.0152 24.31 26.4716L25.9631 24.8155ZM29.5953 31.7476C30.0527 32.2042 30.7934 32.2035 31.25 31.7462C31.7064 31.2888 31.7058 30.5481 31.2484 30.0915L29.5953 31.7476ZM18.4536 14.8435C19.5807 14.7241 20.6534 15.356 21.0951 16.3997L23.25 15.4875C22.4065 13.4949 20.3588 12.2885 18.207 12.5165L18.4536 14.8435ZM24.31 26.4716L29.5953 31.7476L31.2484 30.0915L25.9631 24.8155L24.31 26.4716Z" fill="#636363"/>
</g>
</svg>
