<svg width="16" height="17" viewBox="0 0 16 17" fill="none" xmlns="http://www.w3.org/2000/svg">
<g id="Frame 196">
<rect y="0.5" width="16" height="16" rx="8" fill="#FFD542"/>
<path id="Star 11" d="M7.71468 4.87812C7.80449 4.60172 8.19551 4.60172 8.28532 4.87812L9.05522 7.24762C9.09538 7.37123 9.21057 7.45492 9.34053 7.45492H11.832C12.1226 7.45492 12.2434 7.8268 12.0083 7.99762L9.99269 9.46205C9.88755 9.53845 9.84355 9.67386 9.88371 9.79746L10.6536 12.167C10.7434 12.4434 10.4271 12.6732 10.192 12.5024L8.17634 11.0379C8.07119 10.9616 7.92881 10.9616 7.82366 11.0379L5.80804 12.5024C5.57293 12.6732 5.25659 12.4434 5.34639 12.167L6.11629 9.79746C6.15645 9.67386 6.11245 9.53845 6.00731 9.46205L3.99169 7.99762C3.75657 7.8268 3.87741 7.45492 4.16802 7.45492H6.65947C6.78944 7.45492 6.90462 7.37123 6.94478 7.24762L7.71468 4.87812Z" fill="white"/>
</g>
</svg>
