<svg width="40" height="40" viewBox="0 0 40 40" fill="none" xmlns="http://www.w3.org/2000/svg">
<g id="credit-card-svgrepo-com 1" clip-path="url(#clip0_224_21355)">
<path id="Vector" d="M-0.00190625 32.5202C-0.00190625 33.2136 0.238094 33.8002 0.718094 34.2802C1.19809 34.7602 1.79809 35.0002 2.51809 35.0002H37.5181C38.1848 35.0002 38.7714 34.7602 39.2781 34.2802C39.7848 33.8002 40.0248 33.2136 39.9981 32.5202V7.52024C39.9981 6.82691 39.7581 6.24024 39.2781 5.76024C38.7981 5.28024 38.2114 5.02691 37.5181 5.00024H2.51809C1.82476 5.00024 1.22476 5.25358 0.718094 5.76024C0.211427 6.26691 -0.0285729 6.85358 -0.00190625 7.52024V32.5202ZM2.51809 32.5202V15.0002H37.5181V32.5202H2.51809ZM2.51809 10.0002V7.52024H37.5181V10.0002H2.51809ZM4.99809 30.0002H9.99809V27.5202H4.99809V30.0002ZM4.99809 25.0002H12.5181V17.5202H4.99809V25.0002ZM12.5181 30.0002H17.5181V27.5202H12.5181V30.0002ZM19.9981 30.0002H24.9981V27.5202H19.9981V30.0002ZM27.5181 30.0002H29.9981V27.5202H27.5181V30.0002ZM32.5181 30.0002H34.9981V27.5202H32.5181V30.0002Z" fill="#ABABAB"/>
</g>
<defs>
<clipPath id="clip0_224_21355">
<rect width="40" height="40" fill="white" transform="translate(0 0.000244141)"/>
</clipPath>
</defs>
</svg>
