<svg width="14" height="15" viewBox="0 0 14 15" fill="none" xmlns="http://www.w3.org/2000/svg">
<g id="pen-svgrepo-com 1">
<path id="Vector" d="M9.04155 3.7084L10.6914 5.35832M1.75 12.7499L1.77768 12.5561C1.87563 11.8706 1.9246 11.5277 2.036 11.2077C2.13485 10.9236 2.26989 10.6535 2.43778 10.4041C2.62699 10.1229 2.87186 9.87806 3.3616 9.38835L10.1562 2.59366C10.6119 2.13805 11.3506 2.13805 11.8062 2.59366C12.2618 3.04928 12.2618 3.78797 11.8062 4.24358L4.88684 11.1629C4.44254 11.6072 4.2204 11.8294 3.96737 12.006C3.74277 12.1628 3.50054 12.2927 3.24566 12.393C2.9585 12.5061 2.65052 12.5682 2.03463 12.6925L1.75 12.7499Z" stroke="#ABABAB" stroke-linecap="round" stroke-linejoin="round"/>
</g>
</svg>
