<svg width="20" height="21" viewBox="0 0 20 21" fill="none" xmlns="http://www.w3.org/2000/svg">
<g id="lock-alt-svgrepo-com 1">
<path id="Vector" d="M10.0026 12.5836V14.2502M5.83594 8.85758C6.22879 8.83358 6.7131 8.83358 7.33594 8.83358H12.6693C13.2921 8.83358 13.7764 8.83358 14.1693 8.85758M5.83594 8.85758C5.34567 8.88749 4.99785 8.95483 4.70096 9.10608C4.23055 9.34574 3.8481 9.72816 3.60842 10.1986C3.33594 10.7334 3.33594 11.4334 3.33594 12.8336V14.0002C3.33594 15.4004 3.33594 16.1004 3.60842 16.6352C3.8481 17.1057 4.23055 17.4881 4.70096 17.7277C5.23574 18.0002 5.9358 18.0002 7.33594 18.0002H12.6693C14.0694 18.0002 14.7694 18.0002 15.3043 17.7277C15.7747 17.4881 16.1571 17.1057 16.3968 16.6352C16.6693 16.1004 16.6693 15.4004 16.6693 14.0002V12.8336C16.6693 11.4334 16.6693 10.7334 16.3968 10.1986C16.1571 9.72816 15.7747 9.34574 15.3043 9.10608C15.0074 8.95483 14.6595 8.88749 14.1693 8.85758M5.83594 8.85758V7.16691C5.83594 4.86573 7.70142 3.00024 10.0026 3.00024C12.3038 3.00024 14.1693 4.86573 14.1693 7.16691V8.85758" stroke="#898989" stroke-width="2" stroke-linecap="round" stroke-linejoin="round"/>
</g>
</svg>
