<svg width="15" height="15" viewBox="0 0 15 15" fill="none" xmlns="http://www.w3.org/2000/svg">
<g id="faq-svgrepo-com 1" clip-path="url(#clip0_224_21411)">
<path id="Vector" d="M7.5 0.625C6.14026 0.625 4.81105 1.02821 3.68046 1.78365C2.54987 2.53908 1.66868 3.61281 1.14833 4.86905C0.627979 6.12529 0.491831 7.50763 0.757104 8.84125C1.02238 10.1749 1.67716 11.3999 2.63864 12.3614C3.60013 13.3228 4.82514 13.9776 6.15876 14.2429C7.49238 14.5082 8.87471 14.372 10.131 13.8517C11.3872 13.3313 12.4609 12.4501 13.2164 11.3195C13.9718 10.189 14.375 8.85975 14.375 7.5C14.3729 5.6773 13.6478 3.92986 12.359 2.64102C11.0701 1.35217 9.32271 0.62715 7.5 0.625ZM7.5 13.125C6.38748 13.125 5.29995 12.7951 4.37492 12.177C3.44989 11.5589 2.72892 10.6804 2.30318 9.65259C1.87744 8.62476 1.76604 7.49376 1.98309 6.40262C2.20013 5.31147 2.73586 4.30919 3.52253 3.52252C4.3092 2.73585 5.31148 2.20012 6.40262 1.98308C7.49376 1.76604 8.62476 1.87743 9.6526 2.30318C10.6804 2.72892 11.5589 3.44989 12.177 4.37492C12.7951 5.29994 13.125 6.38748 13.125 7.5C13.1232 8.99128 12.53 10.421 11.4755 11.4755C10.421 12.53 8.99129 13.1232 7.5 13.125ZM8.125 10.3125V11.5625H6.875V10.3125H8.125ZM10 5.9375C10.0007 6.31233 9.91672 6.68248 9.75439 7.02034C9.59207 7.35819 9.35556 7.65505 9.0625 7.88875C8.58911 8.25559 8.269 8.78532 8.16438 9.375H6.89438C6.94964 8.89314 7.10083 8.42723 7.33902 8.00473C7.57721 7.58224 7.89758 7.21171 8.28125 6.915C8.43522 6.79177 8.55785 6.63386 8.63912 6.45417C8.72038 6.27449 8.75798 6.07812 8.74884 5.88112C8.7397 5.68413 8.68407 5.49209 8.58651 5.3207C8.48895 5.14931 8.35222 5.00344 8.1875 4.895C8.00391 4.775 7.79268 4.70397 7.57388 4.68865C7.35509 4.67334 7.13602 4.71425 6.9375 4.8075C6.72575 4.909 6.54804 5.06983 6.42599 5.27043C6.30394 5.47104 6.2428 5.70279 6.25 5.9375C6.25 6.10326 6.18415 6.26223 6.06694 6.37944C5.94973 6.49665 5.79076 6.5625 5.625 6.5625C5.45924 6.5625 5.30027 6.49665 5.18306 6.37944C5.06585 6.26223 5 6.10326 5 5.9375C4.9907 5.45715 5.12324 4.98472 5.38103 4.57929C5.63883 4.17387 6.01044 3.85346 6.44938 3.65813C6.83847 3.48424 7.26509 3.41112 7.68988 3.44553C8.11468 3.47994 8.52396 3.62076 8.88 3.855C9.22403 4.08275 9.50635 4.3921 9.70177 4.75546C9.8972 5.11883 9.99965 5.52492 10 5.9375Z" fill="#AAAAAA"/>
</g>
<defs>
<clipPath id="clip0_224_21411">
<rect width="15" height="15" fill="white"/>
</clipPath>
</defs>
</svg>
