<svg width="37" height="29" viewBox="0 0 37 29" fill="none" xmlns="http://www.w3.org/2000/svg">
<g id="Vector" filter="url(#filter0_d_120_13009)">
<path d="M6.96042 22.789C7.45256 23.2492 8.10303 23.5036 8.77778 23.5H28.2222C29.7562 23.5 31 22.26 31 20.3846V14.5H18.1528L6.96042 22.789Z" fill="#D7141A"/>
<path d="M28.2222 5.5H8.77778C8.10036 5.49982 7.44647 5.74766 6.94028 6.19646L18.1528 14.5H31L31 8.26923C31 7.53478 30.7073 6.83042 30.1864 6.31109C29.6655 5.79176 28.9589 5.5 28.2222 5.5Z" fill="#EEEEEE"/>
<path d="M6.96042 22.789L18.1528 14.5L6.94028 6.19646C6.64474 6.45545 6.408 6.7743 6.24586 7.13173C6.08372 7.48916 5.9999 7.87695 6 8.26922V20.3846C6 21.4092 6.37292 22.242 6.96042 22.789Z" fill="#11457E"/>
</g>
<defs>
<filter id="filter0_d_120_13009" x="0.5" y="0" width="36" height="29" filterUnits="userSpaceOnUse" color-interpolation-filters="sRGB">
<feFlood flood-opacity="0" result="BackgroundImageFix"/>
<feColorMatrix in="SourceAlpha" type="matrix" values="0 0 0 0 0 0 0 0 0 0 0 0 0 0 0 0 0 0 127 0" result="hardAlpha"/>
<feOffset/>
<feGaussianBlur stdDeviation="2.75"/>
<feComposite in2="hardAlpha" operator="out"/>
<feColorMatrix type="matrix" values="0 0 0 0 0 0 0 0 0 0 0 0 0 0 0 0 0 0 0.25 0"/>
<feBlend mode="normal" in2="BackgroundImageFix" result="effect1_dropShadow_120_13009"/>
<feBlend mode="normal" in="SourceGraphic" in2="effect1_dropShadow_120_13009" result="shape"/>
</filter>
</defs>
</svg>
