<svg width="20" height="15" viewBox="0 0 20 15" fill="none" xmlns="http://www.w3.org/2000/svg">
<path d="M0.768333 14.1512C1.16205 14.5205 1.68242 14.7247 2.22222 14.7218H17.7778C19.005 14.7218 20 13.7268 20 12.2218V7.49957H9.72222L0.768333 14.1512Z" fill="#D7141A"/>
<path d="M17.7778 0.277344H2.22222C1.68029 0.2772 1.15717 0.476086 0.752222 0.836233L9.72222 7.49957H20L20 2.49957C20 1.9102 19.7659 1.34497 19.3491 0.928218C18.9324 0.51147 18.3671 0.277344 17.7778 0.277344Z" fill="#EEEEEE"/>
<path d="M0.768333 14.1512L9.72222 7.49957L0.752222 0.836233C0.515792 1.04407 0.326402 1.29993 0.196689 1.58676C0.0669754 1.87358 -7.87184e-05 2.18477 6.93503e-08 2.49957V12.2218C6.93503e-08 13.044 0.298333 13.7123 0.768333 14.1512Z" fill="#11457E"/>
</svg>
