<svg width="20" height="15" viewBox="0 0 20 15" fill="none" xmlns="http://www.w3.org/2000/svg">
<g id="icon/kaz">
<g id="Vector">
<path d="M18.5714 0.280273H1.42857C0.639593 0.280273 0 0.926774 0 1.72427V13.2763C0 14.0738 0.639593 14.7203 1.42857 14.7203H18.5714C19.3604 14.7203 20 14.0738 20 13.2763V1.72427C20 0.926774 19.3604 0.280273 18.5714 0.280273Z" fill="black"/>
<path d="M18.5714 0.280273H1.42857C0.639593 0.280273 0 0.926774 0 1.72427V13.2763C0 14.0738 0.639593 14.7203 1.42857 14.7203H18.5714C19.3604 14.7203 20 14.0738 20 13.2763V1.72427C20 0.926774 19.3604 0.280273 18.5714 0.280273Z" fill="white"/>
<path d="M18.5714 0.280273H1.42857C0.639593 0.280273 0 0.926774 0 1.72427V13.2763C0 14.0738 0.639593 14.7203 1.42857 14.7203H18.5714C19.3604 14.7203 20 14.0738 20 13.2763V1.72427C20 0.926774 19.3604 0.280273 18.5714 0.280273Z" fill="white"/>
<path d="M20 1.28027C20 0.727989 19.5523 0.280273 19 0.280273H1C0.447715 0.280273 0 0.727989 0 1.28027V13.7203C0 14.2726 0.447716 14.7203 1 14.7203H19C19.5523 14.7203 20 14.2726 20 13.7203V1.28027Z" fill="#30C6E0"/>
<path fill-rule="evenodd" clip-rule="evenodd" d="M10 10.3883C11.5779 10.3883 12.8571 9.09524 12.8571 7.50027C12.8571 5.90527 11.5779 4.61227 10 4.61227C8.42207 4.61227 7.14286 5.90527 7.14286 7.50027C7.14286 9.09524 8.42207 10.3883 10 10.3883Z" fill="#FFCD4B"/>
<path fill-rule="evenodd" clip-rule="evenodd" d="M8.64646 11.3281C8.71182 11.792 9.31687 11.9343 9.57566 11.5438C9.77699 11.24 10.223 11.24 10.4243 11.5438C10.6831 11.9343 11.2882 11.792 11.3535 11.3282C11.4043 10.9676 11.8063 10.7719 12.1193 10.958C12.5215 11.1972 13.0033 10.8033 12.8631 10.3569C12.7538 10.009 13.0303 9.6556 13.3937 9.68614C13.8614 9.72544 14.1266 9.16228 13.8064 8.81911C13.557 8.55184 13.6535 8.11388 13.9944 7.98187C14.4343 7.81151 14.4343 7.18904 13.9944 7.01868C13.6535 6.88668 13.557 6.44871 13.8064 6.18144C14.1266 5.83827 13.8614 5.2751 13.3937 5.31441C13.0304 5.34495 12.7538 4.99151 12.8631 4.64363C13.0033 4.19721 12.5215 3.80338 12.1193 4.04252C11.8063 4.22864 11.4043 4.03297 11.3535 3.67238C11.2882 3.20851 10.6831 3.06629 10.4243 3.45677C10.223 3.76056 9.777 3.76056 9.57566 3.45677C9.31687 3.06629 8.71182 3.20853 8.64646 3.67239C8.59566 4.03297 8.19367 4.22864 7.88068 4.04253C7.47852 3.80339 6.99678 4.1972 7.13697 4.6436C7.24622 4.9915 6.9697 5.34495 6.60633 5.31441C6.13861 5.2751 5.87339 5.83827 6.19361 6.18145C6.44299 6.44872 6.34646 6.88668 6.00558 7.01868C5.56564 7.18904 5.56564 7.81151 6.00558 7.98187C6.34646 8.11388 6.44299 8.55183 6.1936 8.8191C5.87339 9.16228 6.13861 9.72544 6.60633 9.68614C6.9697 9.6556 7.24622 10.009 7.13697 10.3569C6.99678 10.8033 7.47852 11.1971 7.88068 10.958C8.19367 10.7719 8.59566 10.9676 8.64646 11.3281ZM13.3334 7.50027C13.3334 9.36108 11.8409 10.8696 10 10.8696C8.15907 10.8696 6.66667 9.36108 6.66667 7.50027C6.66667 5.63944 8.15907 4.13094 10 4.13094C11.8409 4.13094 13.3334 5.63944 13.3334 7.50027Z" fill="#FFCD4B"/>
<path fill-rule="evenodd" clip-rule="evenodd" d="M0.952379 1.48362C0.952379 1.3507 1.05898 1.24294 1.19047 1.24294H1.66666C1.79816 1.24294 1.90476 1.3507 1.90476 1.48362V1.96494C1.90476 2.09786 1.79816 2.20562 1.66666 2.20562H1.19047C1.05898 2.20562 0.952379 2.09786 0.952379 1.96494V1.48362ZM0.952379 3.40894C0.952379 3.27603 1.05898 3.16828 1.19047 3.16828H1.66666C1.79816 3.16828 1.90476 3.27603 1.90476 3.40894V3.89028C1.90476 4.02319 1.79816 4.13094 1.66666 4.13094H1.19047C1.05898 4.13094 0.952379 4.0232 0.952379 3.89028V3.40894ZM1.19047 5.09362C1.05898 5.09362 0.952379 5.20137 0.952379 5.33428V5.81562C0.952379 5.94853 1.05898 6.05628 1.19047 6.05628H1.66666C1.79816 6.05628 1.90476 5.94853 1.90476 5.81562V5.33428C1.90476 5.20137 1.79816 5.09362 1.66666 5.09362H1.19047ZM0.952379 7.25962C0.952379 7.1267 1.05898 7.01894 1.19047 7.01894H1.66666C1.79816 7.01894 1.90476 7.1267 1.90476 7.25962V7.74092C1.90476 7.87384 1.79816 7.98163 1.66666 7.98163H1.19047C1.05898 7.98163 0.952379 7.87384 0.952379 7.74092V7.25962ZM1.19047 8.94427C1.05898 8.94427 0.952379 9.052 0.952379 9.18492V9.66627C0.952379 9.79919 1.05898 9.90692 1.19047 9.90692H1.66666C1.79816 9.90692 1.90476 9.79919 1.90476 9.66627V9.18492C1.90476 9.052 1.79816 8.94427 1.66666 8.94427H1.19047ZM0.952379 11.1103C0.952379 10.9774 1.05898 10.8696 1.19047 10.8696H1.66666C1.79816 10.8696 1.90476 10.9774 1.90476 11.1103V11.5916C1.90476 11.7246 1.79816 11.8323 1.66666 11.8323H1.19047C1.05898 11.8323 0.952379 11.7246 0.952379 11.5916V11.1103ZM1.19047 12.7949C1.05898 12.7949 0.952379 12.9027 0.952379 13.0356V13.5169C0.952379 13.6498 1.05898 13.7576 1.19047 13.7576H1.66666C1.79816 13.7576 1.90476 13.6498 1.90476 13.5169V13.0356C1.90476 12.9027 1.79816 12.7949 1.66666 12.7949H1.19047ZM1.90476 12.0729C1.90476 11.94 2.01136 11.8323 2.14285 11.8323H2.61904C2.75054 11.8323 2.85714 11.94 2.85714 12.0729V12.5543C2.85714 12.6872 2.75054 12.7949 2.61904 12.7949H2.14286C2.01136 12.7949 1.90476 12.6872 1.90476 12.5543V12.0729ZM2.14285 9.90692C2.01136 9.90692 1.90476 10.0147 1.90476 10.1476V10.6289C1.90476 10.7618 2.01136 10.8696 2.14286 10.8696H2.61904C2.75054 10.8696 2.85714 10.7618 2.85714 10.6289V10.1476C2.85714 10.0147 2.75054 9.90692 2.61904 9.90692H2.14285ZM1.90476 8.22227C1.90476 8.08935 2.01136 7.98163 2.14285 7.98163H2.61904C2.75054 7.98163 2.85714 8.08935 2.85714 8.22227V8.70363C2.85714 8.83655 2.75054 8.94427 2.61904 8.94427H2.14286C2.01136 8.94427 1.90476 8.83655 1.90476 8.70363V8.22227ZM2.14285 6.05628C2.01136 6.05628 1.90476 6.16403 1.90476 6.29694V6.77828C1.90476 6.91119 2.01136 7.01894 2.14286 7.01894H2.61904C2.75054 7.01894 2.85714 6.91119 2.85714 6.77828V6.29694C2.85714 6.16403 2.75054 6.05628 2.61904 6.05628H2.14285ZM1.90476 4.37162C1.90476 4.2387 2.01136 4.13094 2.14285 4.13094H2.61904C2.75054 4.13094 2.85714 4.2387 2.85714 4.37162V4.85294C2.85714 4.98586 2.75054 5.09362 2.61904 5.09362H2.14286C2.01136 5.09362 1.90476 4.98586 1.90476 4.85294V4.37162ZM2.14285 2.20562C2.01136 2.20562 1.90476 2.31337 1.90476 2.44628V2.92762C1.90476 3.06053 2.01136 3.16828 2.14286 3.16828H2.61904C2.75054 3.16828 2.85714 3.06053 2.85714 2.92762V2.44628C2.85714 2.31337 2.75054 2.20562 2.61904 2.20562H2.14285Z" fill="#FFCD4B"/>
</g>
</g>
</svg>
