<svg width="32" height="29" viewBox="0 0 32 29" fill="none" xmlns="http://www.w3.org/2000/svg">
<g id="flag-kz-svgrepo-com 1" clip-path="url(#clip0_1_2026)" filter="url(#filter0_d_1_2026)">
<g id="Vector">
<path d="M29.2143 6.35742H7.78571C6.79949 6.35742 6 7.16331 6 8.15742V22.5574C6 23.5515 6.79949 24.3574 7.78571 24.3574H29.2143C30.2005 24.3574 31 23.5515 31 22.5574V8.15742C31 7.16331 30.2005 6.35742 29.2143 6.35742Z" fill="black"/>
<path d="M29.2143 6.35742H7.78571C6.79949 6.35742 6 7.16331 6 8.15742V22.5574C6 23.5515 6.79949 24.3574 7.78571 24.3574H29.2143C30.2005 24.3574 31 23.5515 31 22.5574V8.15742C31 7.16331 30.2005 6.35742 29.2143 6.35742Z" fill="white"/>
<path d="M29.2143 6.35742H7.78571C6.79949 6.35742 6 7.16331 6 8.15742V22.5574C6 23.5515 6.79949 24.3574 7.78571 24.3574H29.2143C30.2005 24.3574 31 23.5515 31 22.5574V8.15742C31 7.16331 30.2005 6.35742 29.2143 6.35742Z" fill="white"/>
<path d="M31 7.35742C31 6.80514 30.5523 6.35742 30 6.35742H7C6.44772 6.35742 6 6.80514 6 7.35742V23.3574C6 23.9097 6.44772 24.3574 7 24.3574H30C30.5523 24.3574 31 23.9097 31 23.3574V7.35742Z" fill="#30C6E0"/>
<path fill-rule="evenodd" clip-rule="evenodd" d="M18.5 18.9574C20.4724 18.9574 22.0714 17.3456 22.0714 15.3574C22.0714 13.3692 20.4724 11.7574 18.5 11.7574C16.5276 11.7574 14.9286 13.3692 14.9286 15.3574C14.9286 17.3456 16.5276 18.9574 18.5 18.9574Z" fill="#FFCD4B"/>
<path fill-rule="evenodd" clip-rule="evenodd" d="M16.8081 20.1293C16.89 20.7089 17.6456 20.8852 17.9697 20.3977C18.2216 20.0186 18.7784 20.0186 19.0303 20.3977C19.3544 20.8852 20.11 20.7089 20.1919 20.1293C20.2555 19.6789 20.7573 19.4353 21.1486 19.6673C21.6517 19.9656 22.2545 19.476 22.0788 18.9181C21.942 18.4838 22.2877 18.0441 22.7415 18.0821C23.3257 18.1311 23.6582 17.4291 23.2576 17.001C22.9459 16.6679 23.0673 16.1222 23.4928 15.9578C24.0418 15.7458 24.0418 14.969 23.4928 14.757C23.0673 14.5927 22.9459 14.047 23.2576 13.7139C23.6582 13.2858 23.3257 12.5838 22.7415 12.6327C22.2877 12.6707 21.942 12.2311 22.0788 11.7967C22.2545 11.2388 21.6517 10.7492 21.1486 11.0475C20.7573 11.2796 20.2555 11.036 20.1919 10.5856C20.11 10.0059 19.3544 9.8296 19.0303 10.3172C18.7784 10.6963 18.2216 10.6963 17.9697 10.3172C17.6456 9.8296 16.89 10.0059 16.8081 10.5856C16.7445 11.036 16.2427 11.2796 15.8514 11.0476C15.3483 10.7492 14.7456 11.2388 14.9213 11.7967C15.0581 12.231 14.7123 12.6707 14.2586 12.6327C13.6743 12.5838 13.3418 13.2858 13.7424 13.7139C14.0541 14.047 13.9327 14.5927 13.5071 14.757C12.9581 14.969 12.9581 15.7458 13.5071 15.9578C13.9327 16.1222 14.0541 16.6679 13.7424 17.001C13.3418 17.4291 13.6743 18.1311 14.2586 18.0821C14.7124 18.0441 15.0581 18.4838 14.9213 18.9181C14.7456 19.476 15.3483 19.9656 15.8514 19.6673C16.2427 19.4353 16.7445 19.6788 16.8081 20.1293ZM22.6667 15.3574C22.6667 17.677 20.8012 19.5575 18.5 19.5575C16.1988 19.5575 14.3333 17.677 14.3333 15.3574C14.3333 13.0378 16.1988 11.1574 18.5 11.1574C20.8012 11.1574 22.6667 13.0378 22.6667 15.3574Z" fill="#FFCD4B"/>
<path fill-rule="evenodd" clip-rule="evenodd" d="M7.19047 7.85743C7.19047 7.69174 7.32372 7.55743 7.48809 7.55743H8.08333C8.2477 7.55743 8.38095 7.69174 8.38095 7.85743V8.45743C8.38095 8.62312 8.2477 8.75743 8.08333 8.75743H7.48809C7.32372 8.75743 7.19047 8.62312 7.19047 8.45743V7.85743ZM7.19047 10.2574C7.19047 10.0917 7.32372 9.95743 7.48809 9.95743H8.08333C8.2477 9.95743 8.38095 10.0917 8.38095 10.2574V10.8574C8.38095 11.0231 8.2477 11.1574 8.08333 11.1574H7.48809C7.32372 11.1574 7.19047 11.0231 7.19047 10.8574V10.2574ZM7.48809 12.3574C7.32372 12.3574 7.19047 12.4917 7.19047 12.6574V13.2574C7.19047 13.4231 7.32372 13.5574 7.48809 13.5574H8.08333C8.2477 13.5574 8.38095 13.4231 8.38095 13.2574V12.6574C8.38095 12.4917 8.2477 12.3574 8.08333 12.3574H7.48809ZM7.19047 15.0574C7.19047 14.8917 7.32372 14.7574 7.48809 14.7574H8.08333C8.2477 14.7574 8.38095 14.8917 8.38095 15.0574V15.6574C8.38095 15.8231 8.2477 15.9575 8.08333 15.9575H7.48809C7.32372 15.9575 7.19047 15.8231 7.19047 15.6574V15.0574ZM7.48809 17.1574C7.32372 17.1574 7.19047 17.2917 7.19047 17.4574V18.0574C7.19047 18.2231 7.32372 18.3574 7.48809 18.3574H8.08333C8.2477 18.3574 8.38095 18.2231 8.38095 18.0574V17.4574C8.38095 17.2917 8.2477 17.1574 8.08333 17.1574H7.48809ZM7.19047 19.8574C7.19047 19.6917 7.32372 19.5575 7.48809 19.5575H8.08333C8.2477 19.5575 8.38095 19.6917 8.38095 19.8574V20.4575C8.38095 20.6231 8.2477 20.7574 8.08333 20.7574H7.48809C7.32372 20.7574 7.19047 20.6231 7.19047 20.4575V19.8574ZM7.48809 21.9574C7.32372 21.9574 7.19047 22.0918 7.19047 22.2575V22.8574C7.19047 23.0231 7.32372 23.1575 7.48809 23.1575H8.08333C8.2477 23.1575 8.38095 23.0231 8.38095 22.8574V22.2575C8.38095 22.0918 8.2477 21.9574 8.08333 21.9574H7.48809ZM8.38095 21.0574C8.38095 20.8917 8.5142 20.7574 8.67856 20.7574H9.2738C9.43818 20.7574 9.57142 20.8917 9.57142 21.0574V21.6574C9.57142 21.8231 9.43818 21.9574 9.2738 21.9574H8.67857C8.5142 21.9574 8.38095 21.8231 8.38095 21.6574V21.0574ZM8.67856 18.3574C8.5142 18.3574 8.38095 18.4918 8.38095 18.6575V19.2574C8.38095 19.4231 8.5142 19.5575 8.67857 19.5575H9.2738C9.43818 19.5575 9.57142 19.4231 9.57142 19.2574V18.6575C9.57142 18.4918 9.43818 18.3574 9.2738 18.3574H8.67856ZM8.38095 16.2574C8.38095 16.0917 8.5142 15.9575 8.67856 15.9575H9.2738C9.43818 15.9575 9.57142 16.0917 9.57142 16.2574V16.8575C9.57142 17.0231 9.43818 17.1574 9.2738 17.1574H8.67857C8.5142 17.1574 8.38095 17.0231 8.38095 16.8575V16.2574ZM8.67856 13.5574C8.5142 13.5574 8.38095 13.6917 8.38095 13.8574V14.4574C8.38095 14.6231 8.5142 14.7574 8.67857 14.7574H9.2738C9.43818 14.7574 9.57142 14.6231 9.57142 14.4574V13.8574C9.57142 13.6917 9.43818 13.5574 9.2738 13.5574H8.67856ZM8.38095 11.4574C8.38095 11.2917 8.5142 11.1574 8.67856 11.1574H9.2738C9.43818 11.1574 9.57142 11.2917 9.57142 11.4574V12.0574C9.57142 12.2231 9.43818 12.3574 9.2738 12.3574H8.67857C8.5142 12.3574 8.38095 12.2231 8.38095 12.0574V11.4574ZM8.67856 8.75743C8.5142 8.75743 8.38095 8.89175 8.38095 9.05743V9.65743C8.38095 9.82312 8.5142 9.95743 8.67857 9.95743H9.2738C9.43818 9.95743 9.57142 9.82312 9.57142 9.65743V9.05743C9.57142 8.89175 9.43818 8.75743 9.2738 8.75743H8.67856Z" fill="#FFCD4B"/>
</g>
</g>
<defs>
<filter id="filter0_d_1_2026" x="0.5" y="-2" width="31" height="31" filterUnits="userSpaceOnUse" color-interpolation-filters="sRGB">
<feFlood flood-opacity="0" result="BackgroundImageFix"/>
<feColorMatrix in="SourceAlpha" type="matrix" values="0 0 0 0 0 0 0 0 0 0 0 0 0 0 0 0 0 0 127 0" result="hardAlpha"/>
<feOffset/>
<feGaussianBlur stdDeviation="2.75"/>
<feComposite in2="hardAlpha" operator="out"/>
<feColorMatrix type="matrix" values="0 0 0 0 0 0 0 0 0 0 0 0 0 0 0 0 0 0 0.25 0"/>
<feBlend mode="normal" in2="BackgroundImageFix" result="effect1_dropShadow_1_2026"/>
<feBlend mode="normal" in="SourceGraphic" in2="effect1_dropShadow_1_2026" result="shape"/>
</filter>
<clipPath id="clip0_1_2026">
<rect width="20" height="20" fill="white" transform="translate(6 3.5)"/>
</clipPath>
</defs>
</svg>
