<svg width="32" height="27" viewBox="0 0 32 27" fill="none" xmlns="http://www.w3.org/2000/svg">
<g filter="url(#filter0_d_120_12974)">
<path d="M6 18.4996C6 19.0889 6.23413 19.6542 6.65088 20.0709C7.06762 20.4877 7.63285 20.7218 8.22222 20.7218H23.7778C24.3671 20.7218 24.9324 20.4877 25.3491 20.0709C25.7659 19.6542 26 19.0889 26 18.4996V16.2773H6V18.4996Z" fill="#FF3C44"/>
<path d="M26 10.7218H6V16.2773H26V10.7218Z" fill="#426ACE"/>
<path d="M8.22222 6.27734H23.7778C24.3671 6.27734 24.9324 6.51147 25.3491 6.92822C25.7659 7.34496 26 7.9102 26 8.49957V10.7218H6V8.49957C6 7.9102 6.23413 7.34496 6.65088 6.92822C7.06762 6.51147 7.63285 6.27734 8.22222 6.27734Z" fill="white"/>
</g>
<defs>
<filter id="filter0_d_120_12974" x="0.5" y="0.777344" width="31" height="25.4443" filterUnits="userSpaceOnUse" color-interpolation-filters="sRGB">
<feFlood flood-opacity="0" result="BackgroundImageFix"/>
<feColorMatrix in="SourceAlpha" type="matrix" values="0 0 0 0 0 0 0 0 0 0 0 0 0 0 0 0 0 0 127 0" result="hardAlpha"/>
<feOffset/>
<feGaussianBlur stdDeviation="2.75"/>
<feComposite in2="hardAlpha" operator="out"/>
<feColorMatrix type="matrix" values="0 0 0 0 0 0 0 0 0 0 0 0 0 0 0 0 0 0 0.25 0"/>
<feBlend mode="normal" in2="BackgroundImageFix" result="effect1_dropShadow_120_12974"/>
<feBlend mode="normal" in="SourceGraphic" in2="effect1_dropShadow_120_12974" result="shape"/>
</filter>
</defs>
</svg>
