<svg width="20" height="15" viewBox="0 0 20 15" fill="none" xmlns="http://www.w3.org/2000/svg">
<path d="M2.08616e-07 12.4996C2.08616e-07 13.0889 0.234128 13.6542 0.650875 14.0709C1.06762 14.4877 1.63285 14.7218 2.22222 14.7218H17.7778C18.3671 14.7218 18.9324 14.4877 19.3491 14.0709C19.7659 13.6542 20 13.0889 20 12.4996V10.2773H2.08616e-07V12.4996Z" fill="#FF3C44"/>
<path d="M20 4.72179H2.08616e-07V10.2773H20V4.72179Z" fill="#426ACE"/>
<path d="M2.22222 0.277344H17.7778C18.3671 0.277344 18.9324 0.51147 19.3491 0.928217C19.7659 1.34497 20 1.9102 20 2.49957V4.72179H2.08616e-07V2.49957C2.08616e-07 1.9102 0.234128 1.34497 0.650875 0.928217C1.06762 0.51147 1.63285 0.277344 2.22222 0.277344Z" fill="white"/>
</svg>
