<svg width="21" height="19" viewBox="0 0 21 19" fill="none" xmlns="http://www.w3.org/2000/svg">
<path id="Star 1" d="M9.5493 0.914522C9.84935 -0.00532794 11.1507 -0.00532877 11.4507 0.914521L13.0893 5.93778C13.2233 6.34884 13.6064 6.62717 14.0388 6.62767L19.3225 6.63375C20.2901 6.63487 20.6922 7.87248 19.9101 8.44209L15.6391 11.5527C15.2895 11.8073 15.1432 12.2576 15.2764 12.669L16.9033 17.696C17.2013 18.6165 16.1485 19.3814 15.3651 18.8136L11.0869 15.7128C10.7368 15.4591 10.2632 15.4591 9.91315 15.7128L5.63493 18.8136C4.85151 19.3814 3.79874 18.6165 4.09666 17.696L5.72364 12.669C5.85678 12.2576 5.71045 11.8073 5.36095 11.5527L1.08989 8.44209C0.307777 7.87248 0.709901 6.63487 1.67745 6.63375L6.96119 6.62767C7.39357 6.62717 7.77666 6.34884 7.91074 5.93778L9.5493 0.914522Z" fill="#FFD542"/>
</svg>
